<?xml version="1.0" encoding="utf-8"?>
<!-- Generator: Adobe Illustrator 25.0.1, SVG Export Plug-In . SVG Version: 6.00 Build 0)  -->
<svg version="1.0" id="Layer_1" xmlns="http://www.w3.org/2000/svg" xmlns:xlink="http://www.w3.org/1999/xlink" x="0px" y="0px"
	 viewBox="0 0 276.5 180.4" style="enable-background:new 0 0 276.5 180.4;" xml:space="preserve">
<style type="text/css">
	.st0{fill:#2F015D;}
	.st1{fill:#FFFFFF;}
	.st2{fill:#FF7300;}
	.st3{fill:none;stroke:#110D10;stroke-width:3.86;}
	.st4{fill:#F90006;}
	.st5{fill:#FAE431;}
	.st6{fill:#FBEB40;}
	.st7{fill:#3EA029;}
</style>
<path class="st0" d="M188.8,84c0,1.6-1.3,2.9-2.9,2.9c-1.6,0-2.9-1.3-2.9-2.9v-9.6h1.7v9.9c0,0.8,0.3,1.3,1.2,1.3s1.2-0.4,1.2-1.3
	v-9.9h1.7V84z"/>
<polygon class="st0" points="190,74.3 192.4,74.3 194.4,84.7 194.5,84.7 194.5,74.3 196.1,74.3 196.1,86.8 193.6,86.8 191.6,76.2 
	191.5,76.2 191.5,86.8 190,86.8 "/>
<rect x="197.3" y="74.3" class="st0" width="1.7" height="12.4"/>
<polygon class="st0" points="199.8,74.3 201.5,74.3 203.3,84.2 203.3,84.2 205.1,74.3 206.8,74.3 204.3,86.8 202.3,86.8 "/>
<polygon class="st0" points="207.6,74.3 212.3,74.3 212.3,75.8 209.3,75.8 209.3,79.7 212.1,79.7 212.1,81.1 209.3,81.1 209.3,85.3 
	212.3,85.3 212.3,86.8 207.6,86.8 "/>
<path class="st0" d="M213,74.4h2.7c2.5,0,2.8,0.7,2.8,3.4c0,1.7-0.2,2.4-1.6,2.8l0,0c1.2,0.1,1.6,0.7,1.6,1.9v2.8
	c0,0.5,0,1.1,0.1,1.6h-1.6c-0.2-0.3-0.2-0.7-0.2-1.1v-2.8c0-1.2-0.2-1.5-1.4-1.5h-0.6v5.4H213V74.4z M214.8,79.9h0.4
	c1.4,0,1.6-0.3,1.6-2.1s-0.1-2-1.2-2h-0.8V79.9z"/>
<path class="st0" d="M219.5,83.2h1.7v1c0,0.8,0.3,1.3,1,1.3c0.9,0,1.1-0.6,1.1-1.4c0-1-0.1-1.4-1.8-3.2c-1.1-1.1-2-2.1-2-3.8
	c0-2,1-2.9,2.8-2.9c0.7,0,1.4,0.2,2,0.7c0.4,0.4,0.6,1,0.5,1.6v1.2h-1.6v-1c0-0.7-0.3-1.1-1-1.1s-1,0.4-1,1.4s0.2,1.4,1.8,3
	s2,2.4,2,3.9c0,2-0.8,3.1-2.8,3.1c-1.6,0-2.7-0.7-2.7-2.2L219.5,83.2z"/>
<rect x="225.8" y="74.3" class="st0" width="1.7" height="12.4"/>
<polygon class="st0" points="228.2,74.3 234.1,74.3 234.1,75.8 232,75.8 232,86.8 230.3,86.8 230.3,75.8 228.2,75.8 "/>
<rect x="234.8" y="74.3" class="st0" width="1.7" height="12.4"/>
<path class="st0" d="M182.9,98.7h1.7v1c0,0.8,0.3,1.3,1,1.3c0.9,0,1.1-0.6,1.1-1.4c0-1-0.1-1.4-1.8-3.2c-1.1-1.1-2-2.1-2-3.8
	c0-2,1-2.9,2.8-2.9c0.7,0,1.4,0.2,2,0.7c0.4,0.4,0.6,1,0.5,1.6v1.2h-1.6v-1c0-0.7-0.3-1.1-1-1.1s-1,0.4-1,1.4s0.2,1.4,1.8,3
	s2,2.4,2,3.9c0,2-0.8,3.1-2.8,3.1c-1.6,0-2.7-0.7-2.7-2.2L182.9,98.7z"/>
<path class="st0" d="M191.2,89.9h2l2.5,12.4h-1.7l-0.6-3.2h-2.7l-0.6,3.2h-1.7L191.2,89.9z M191.1,97.7h2.2l-1.1-6l0,0L191.1,97.7z"
	/>
<rect x="196.4" y="89.9" class="st0" width="1.7" height="12.4"/>
<polygon class="st0" points="199.3,89.9 201.7,89.9 203.8,100.2 203.8,100.2 203.8,89.9 205.4,89.9 205.4,102.3 202.9,102.3 
	200.9,91.7 200.9,91.7 200.9,102.3 199.3,102.3 "/>
<path class="st0" d="M206.2,98.7h1.7v1c0,0.8,0.3,1.3,1,1.3c0.9,0,1.1-0.6,1.1-1.4c0-1-0.1-1.4-1.9-3.2c-1.1-1.1-2-2.1-2-3.8
	c0-2,0.9-2.9,2.8-2.9c0.7,0,1.4,0.2,2,0.7c0.4,0.4,0.6,1,0.5,1.6v1.2H210v-1c0-0.7-0.3-1.1-1-1.1s-1,0.4-1,1.4s0.2,1.4,1.8,3
	s2,2.4,2,3.9c0,2-0.8,3.1-2.8,3.1c-1.6,0-2.7-0.7-2.7-2.2L206.2,98.7z"/>
<polygon class="st0" points="182.9,105.4 185.6,105.4 187.2,114.9 187.2,114.9 188.8,105.4 191.5,105.4 191.5,117.9 189.9,117.9 
	189.9,106.7 189.8,106.7 188.1,117.9 186.4,117.9 184.4,106.7 184.4,106.7 184.4,117.9 182.9,117.9 "/>
<path class="st0" d="M194.8,105.5h2l2.5,12.4h-1.7l-0.6-3.2h-2.7l-0.6,3.2h-1.7L194.8,105.5z M194.6,113.3h2.2l-1.1-6l0,0
	L194.6,113.3z"/>
<polygon class="st0" points="199.9,105.4 201.7,105.4 201.7,116.4 204.6,116.4 204.6,117.9 199.9,117.9 "/>
<path class="st0" d="M207.8,105.5h2l2.5,12.4h-1.7l-0.6-3.2h-2.7l-0.6,3.2H205L207.8,105.5z M207.6,113.3h2.2l-1.1-6l0,0
	L207.6,113.3z"/>
<polygon class="st0" points="211.2,105.4 212.9,105.4 214.4,110.7 214.4,110.7 216.1,105.4 217.7,105.4 215.3,112.8 215.3,117.9 
	213.6,117.9 213.6,112.8 "/>
<path class="st0" d="M217.6,114.3h1.7v1c0,0.8,0.3,1.3,1,1.3c0.9,0,1.1-0.6,1.1-1.4c0-1-0.1-1.4-1.8-3.2c-1.1-1.1-2-2.1-2-3.8
	c0-2,1-2.9,2.8-2.9c0.7,0,1.4,0.2,2,0.7c0.4,0.4,0.6,1,0.5,1.6v1.2h-1.6v-1c0-0.7-0.3-1.1-1-1.1s-1,0.4-1,1.4s0.2,1.4,1.8,3
	s2,2.4,2,3.9c0,2-0.8,3.1-2.8,3.1c-1.6,0-2.7-0.7-2.7-2.2L217.6,114.3z"/>
<rect x="223.9" y="105.4" class="st0" width="1.7" height="12.4"/>
<path class="st0" d="M229.2,105.5h2l2.5,12.4H232l-0.6-3.2h-2.7l-0.6,3.2h-1.7L229.2,105.5z M229,113.3h2.2l-1.1-6l0,0L229,113.3z"
	/>
<path class="st1" d="M118.1,118.8c1.9,0,3.8-0.6,5.3-1.7v0.8h1v-1.7c1.4-1.4,2.4-3.2,2.6-5.1l0,0v6.7h6.8l-0.1-0.1h6.6l-0.2,0.1
	h11.6v-29l6,29l6-29v29h6.5V74.3H162l-4.2,19.5l-4.1-19.5h-8.1l0,0H127l0,0h-6.2v36.3c0,1.4-1.2,2.6-2.6,2.6s-2.6-1.2-2.6-2.6V74.3
	h-6.5V110C109.1,114.9,113.2,118.9,118.1,118.8C118.1,118.8,118.1,118.8,118.1,118.8z"/>
<rect x="173.4" y="74.3" class="st1" width="1.1" height="43.6"/>
<rect x="105.4" y="74.3" class="st1" width="1.1" height="43.6"/>
<path class="st1" d="M44.1,103.6c1.4,1.5,1.3,3.8-0.2,5.2c0,0,0,0,0,0c-0.2,0.1-0.4,0.3-0.6,0.5l0,0l0,0l0,0c0,0-0.1,0.1-0.1,0.1
	c-0.1,0.3-0.2,0.7-0.1,1.1c-0.5,0.2-0.9,0.6-1.1,1.1c0.4-0.1,0.8-0.2,1.2-0.1c-0.4,0.4-0.7,0.8-0.8,1.4c0.3-0.2,0.7-0.3,1.1-0.3
	c-0.5,0.3-0.8,0.7-1.1,1.2c0.4-0.1,0.9-0.1,1.3,0c0,0.3,0.1,0.7,0.1,1c0,0.3,1,0.7,2,0.9c0.5,0.1,0.9,0.4,1.3,0.5
	c-0.6,0.4-2,0.4-2.4-0.1c-0.2,0.1,0.1,0.6,0.5,0.8c1,0.8,1.9,1.8,2.5,2.9c3,0.8,2.8-1.8,2.8-2.8c0-1.7,0.2-2.7,0.8-3
	s1.1-0.3,2.2,0.1c-0.1,0.6-0.3,1.2-0.5,1.8v0.1v0.1c1.6,2.4,7.6,4.4,15.4,4.4l0,0c7.9,0,13.8-2,15.4-4.4V116v-0.1
	c-0.2-0.6-0.4-1.2-0.5-1.8c1-0.4,1.7-0.4,2.2-0.1c0.4,0.3,0.8,1.3,0.8,3c0,1-0.2,3.6,2.8,2.8c0.6-1.1,1.4-2.1,2.5-2.9
	c0.4-0.2,0.6-0.7,0.5-0.8c-0.4,0.6-1.8,0.5-2.4,0.1c0.5-0.1,0.8-0.4,1.4-0.5c1-0.2,2-0.6,2-0.9c0-0.3,0-0.7,0.1-1
	c0.4-0.1,0.9-0.1,1.3,0c-0.2-0.5-0.6-0.9-1.1-1.2c0.4,0,0.8,0.1,1.1,0.3c-0.1-0.6-0.4-1.1-0.8-1.4c0.4-0.1,0.9,0,1.3,0.1
	c-0.2-0.5-0.6-0.9-1.1-1.1c0.1-0.4,0-0.8-0.2-1.1c0,0,0-0.1-0.1-0.1l0,0l0,0l0,0l0,0c-0.2-0.2-0.4-0.3-0.6-0.5l0,0
	c-1.5-1.4-1.6-3.7-0.2-5.2c0,0,0,0,0,0c5.3,1.1,4.5-5.3,3-8.6c-1.3-2.9-3.2-6.3-2.1-8.3c0.7-1.3,2.2-0.4,2.6-1.2
	c0.3-0.7-2.6-2.2-4.3,0.9c-0.7,1.6-0.6,3.4,0.4,4.9l0,0c0,0.1,0.1,0.3,0.2,0.4c2.6,5.5,2.3,8.3,1.8,8.8c-0.5,0.5-0.8,0.3-1-0.5
	c-0.6-2.2-1.7-4.2-3.1-5.9l0,0L90,93.8c-0.1-0.2-0.2-0.5-0.3-0.8l0,0c-0.2-0.8-0.5-1.5-0.9-2.3c0.3-1,0.3-2,0.3-3
	c0.1-0.8,0.7-1.1,1.5-1.9c1.4-1.4,3-4,2.2-8.2c0.6-0.5,1-1.1,1.2-1.8c-0.5-0.2-1-0.3-1.5-0.3l0,0c-0.2,0-0.4,0-0.6,0l-0.3-0.2
	c0.1-0.3,0.3-1,0.1-1.1c-0.5,0.3-0.9,0.5-1.1,0.7c-1.2-0.5-2.5-0.5-3.7,0l0,0L86.4,75l0,0h-0.1L86,75.1c-0.1,0-0.1,0-0.2,0.1
	c-0.2,0.1-0.4,0.2-0.6,0.4c-0.5,0.1-1,0.3-1.4,0.6c-0.1,0-0.3,0.1-0.4,0.2c-0.9,0.2-0.8,0.5-0.3,1c0.2,1.6,0.6,1.9,1.5,1.9
	c0.7,0,1.2-0.5,1.9-0.1c0.4,0.3,0.5,0.9,0.3,1.3l0,0c-0.6-0.8-1.7-1.2-2.7-0.9c-0.2,0-0.3,0-0.5,0c-0.5-0.1-0.9-0.5-1-1
	c0,0,0,0-0.1,0c-0.5,1.2,0.5,1.6,1.2,1.7c-0.1,0.2-0.1,0.3-0.1,0.5c-0.6,0.4,0.2,1.7,0.4,1.7c0-0.6,0.6-0.9,0.8-0.7
	c0.2,0.1,0.2,0.3,0.1,0.5c0,0,0,0.1-0.1,0.1c-0.3,0.3-1.8,0.2-2.5,0.4c0.1,0.1,0.2,0.2,0.2,0.3c-0.7,0.3-1.3,0.8-1.8,1.4l0,0
	c-0.2,0.1-0.4,0.1-0.5,0c0-1.2,0.1-2.4,0.4-3.6c0.2-0.8,0.5-1.5,1-2.1c0.3-0.3,0.4-0.6,0.4-1c0-0.3-0.2-0.5-0.5-0.6
	c0-0.2,0-0.5,0-0.8c0.2-0.6-0.1-1.2-0.7-1.4c-0.1,0-0.1,0-0.2,0c0.7-2,3-1.5,3.4,0.7c1-2.6-0.6-3.2-1.2-3.2c0.4-0.2,2.3-0.6,3.2,0.8
	c0.2-1.1-0.6-2.2-1.7-2.4c-0.2,0-0.3,0-0.5,0c0.2-0.1,0.5-0.1,0.7-0.1c1,0,1.9,0.3,2.6,1c-0.4-1.1-1.4-1.9-2.5-2.1
	c0.2,0,0.3,0,0.5,0c1.1,0,2.2,0.3,3.1,1c-0.3-1.2-1.4-2.1-2.7-2.3c1-0.2,2.1,0,3,0.6c-0.4-0.9-1.3-1.6-2.3-1.8c1-0.3,2.1,0,2.9,0.6
	c-0.5-1.1-1.6-1.9-2.8-2c1.3-0.3,2.7,0.1,3.7,0.9c-3.3-5.6-10.3-1.5-10.8,8.3C79.1,75,79,75.2,79,75.4c-1.4,0.2-1.3,1.2-1.2,1.4
	c-1,0.7-0.4,2.3-0.4,2.3l0.1,1.9c0,0.2-0.1,0.5-0.1,0.7c-0.5,1.1-1.3,5.3-0.8,5.8c0.2,0.2,1.6,1.6,2.3,2.2c-0.8,1-1.8,2.2-2.6,3
	l0.2-14.2l-2.5-3.9c0.3,0,0.5-0.2,0.6-0.4c0.4-0.9-0.6-1.9-1.7-1.5c-0.5-0.5-1.2-0.7-1.9-0.5c2.2-1,3.7-3.2,3.7-5.6
	c0-0.8-0.2-1.5-0.4-2.2c-0.4,3.6-2.8,5.8-5.7,5.8l0,0c-2.8,0-5.2-2.1-5.7-5.4c0-0.1,0-0.2,0-0.2v0.1c0-0.1,0-0.1,0-0.2
	c-0.3,0.7-0.4,1.5-0.5,2.2c0,2.4,1.5,4.7,3.7,5.6c-0.7-0.1-1.4,0.1-1.9,0.5c-1.1-0.4-2.1,0.6-1.7,1.5c0.1,0.2,0.4,0.4,0.6,0.4
	l-2.5,3.8l0.2,14.2c-0.8-0.8-1.8-2-2.6-3c0.7-0.6,2.1-2,2.3-2.2c0.5-0.5-0.4-4.8-0.8-5.8l0,0c0-0.2-0.1-0.5-0.1-0.7l0,0l0.1-1.9
	c0,0,0.7-1.6-0.4-2.3c0.1-0.2,0.1-1.3-1.2-1.4c0-0.2-0.1-0.4-0.3-0.6C57,64.9,50,60.8,46.7,66.4c1-0.9,2.4-1.2,3.7-0.9
	c-1.2,0.1-2.3,0.9-2.8,2c0.8-0.6,1.9-0.8,2.9-0.6c-1,0.3-1.8,1-2.2,2c0.9-0.6,2-0.8,3-0.6c-1.2,0.1-2.3,1-2.6,2.2c0.9-0.7,2-1,3.1-1
	c0.2,0,0.3,0,0.5,0c-1.2,0.2-2.1,1-2.5,2.1c0.7-0.7,1.6-1,2.6-1c0.2,0,0.5,0,0.7,0.1c-1.1-0.1-2.1,0.7-2.3,1.9c0,0.2,0,0.3,0,0.5
	c0.8-1.3,2.7-1,3.2-0.8c-0.6,0-2.2,0.6-1.2,3.2c0.2-1.6,1.7-2.3,2.6-1.7l0,0c0.4,0.2,0.6,0.6,0.7,1c-0.6,0.1-1,0.7-0.9,1.2
	c0,0.1,0,0.1,0.1,0.2c0,0.5,0,0.8,0,0.8c-0.3,0.1-0.5,0.3-0.5,0.6c0,0.4,0.1,0.7,0.4,1c0.4,0.7,0.8,1.4,1,2.1
	c0.2,1.2,0.3,2.4,0.3,3.6c-0.1,0-0.3,0-0.5,0c-0.5-0.6-1.2-1-1.9-1.4c0-0.1,0.1-0.2,0.2-0.3c-0.7-0.2-2.2-0.1-2.5-0.4
	c-0.2-0.2-0.2-0.4,0-0.6c0,0,0.1,0,0.1-0.1c0.2-0.2,0.8,0.1,0.8,0.7c0.2,0,1-1.3,0.4-1.7c0-0.2,0-0.3-0.1-0.4c0.7,0,1.7-0.5,1.2-1.7
	c0,0-0.1,0-0.1,0c-0.1,0.5-0.5,0.9-1,1c-0.1,0-0.3,0-0.4,0c-1-0.3-2.1,0-2.8,0.9l0,0c-0.2-0.5-0.1-1,0.3-1.4
	c0.6-0.3,1.2,0.1,1.9,0.1c0.9,0,1.3-0.3,1.5-1.9c0.5-0.5,0.6-0.7-0.3-1c-0.1-0.1-0.2-0.1-0.4-0.2l0,0c-0.4-0.3-0.9-0.5-1.5-0.6
	c-0.2-0.2-0.4-0.4-0.7-0.5l0,0h-0.1L50.6,75l0,0L50,74.9h0.1c-1.2-0.5-2.5-0.5-3.7,0c-0.4-0.2-0.7-0.5-1.1-0.7
	c-0.2,0.2,0,0.8,0.1,1.1c-0.1,0.1-0.2,0.1-0.3,0.2c-0.2,0-0.4,0-0.5,0c-0.5-0.1-1.1,0-1.6,0.2c0.2,0.7,0.6,1.4,1.2,1.9l0,0
	c-0.8,4.2,0.8,6.8,2.2,8.2c0.8,0.8,1.4,1.2,1.5,1.9c-0.1,1,0,2,0.3,3c-0.3,0.7-0.6,1.4-0.8,2.2c-0.1,0.2-0.2,0.5-0.3,0.7l-0.2,0.4
	l0,0c-1.4,1.7-2.4,3.7-3.1,5.9c-0.2,0.8-0.6,0.9-1,0.5c-0.4-0.4-0.8-3.4,1.8-8.8v0.1c0.1-0.2,0.2-0.3,0.2-0.5c0,0,0,0,0,0.1
	c1-1.4,1.1-3.3,0.4-4.9c-1.8-3.1-4.8-1.5-4.4-0.9c0.4,0.8,1.9,0,2.6,1.2c1.1,2-0.8,5.4-2.1,8.3C39.6,98.3,38.8,104.7,44.1,103.6z
	 M90.6,75.8L90.6,75.8z M76,104.3l0.1-5h0.1c0.1,0.3,0.3,0.4,0.6,0.5c-0.1-0.2-0.2-0.4-0.2-0.6c0.3-0.1,0.5-0.3,0.6-0.6l0,0
	c0-0.1,0.1-0.1,0.1-0.2v-0.1c0.1,0,0.2,0,0.3-0.1c0.1,0.2,0.4,0.3,0.6,0.2c-0.2-0.1-0.3-0.2-0.3-0.4c0.3-0.3,0.4-0.7,0.2-1.1
	c0-0.2-0.1-0.3-0.1-0.5c0-0.2,0-0.3,0.1-0.5c0.8-0.9,1.7-1.6,2.8-2.1c1,1.8,3.4,2.6,4.9,3.9c-1.2-0.1-4.6,0.1-5.9,1.9l0,0
	c-0.1,0.1-0.2,0.2-0.3,0.4c0,0,0,0,0-0.1c-0.7,0.6-0.8,3.4-0.8,4.3c0,0.2-0.2,0.4-0.3,0.5c-0.6,0.3-1.2,0.4-1.8,0.3l0,0
	c-0.3-0.3-0.6-0.4-1-0.4L76,104.3z M55.9,93.9c1.1,0.5,2,1.2,2.8,2.1c0.1,0.2,0.1,0.3,0.1,0.5c-0.1,0.2-0.1,0.3-0.1,0.5
	c-0.1,0.3,0,0.7,0.2,1c0,0.2-0.1,0.3-0.3,0.4c0.2,0.1,0.5,0,0.6-0.2c0.1,0,0.2,0.1,0.3,0.1l0.1,0.1c0,0.1,0.1,0.1,0.1,0.2l0,0
	c0.1,0.3,0.4,0.4,0.6,0.6c0,0.2-0.1,0.4-0.2,0.6c0.3,0,0.5-0.2,0.6-0.5h0.1l0.1,5v0.1l0.3,0.4c-0.4,0-0.7,0.2-1,0.4l0,0
	c-0.6,0.1-1.3,0-1.9-0.3c-0.2-0.1-0.3-0.3-0.3-0.5c0-0.9-0.1-3.7-0.8-4.3l0.1,0.1c-0.1-0.2-0.2-0.3-0.4-0.5c0,0,0.1,0,0.1,0.1
	c-1.2-1.8-4.7-2-5.9-1.9C52.5,96.5,54.9,95.7,55.9,93.9z M49.6,80.2L49.6,80.2L49.6,80.2z M46.9,110c0.1-0.4,3.6-2.4,4.8-4.7
	c0.3-0.6,0.5-1.2,0.3-1.9c0.8-0.2,1.6,0,2.1,0.5c0.8,0.8,0,3.3,0.4,3.5c0.3,0.1,0.6,0.2,0.9,0.4c0.2,0.4,0.3,0.9,0.1,1.3
	c0.5-0.3,0.9-0.6,1.3-0.9c0.1,0.4,0.2,0.9,0.1,1.3c0.6-0.3,1.1-0.8,1.5-1.3c0.2,0.3,0.4,0.7,0.4,1.1c0.5-0.2,0.9-0.5,1.1-1
	c0.8-0.1,1.5,0.4,2.1,0c0.1-0.1,0.5,0.3,0.7,0.7c0.1-0.4,0-0.9-0.2-1.2c0,0,0.1-0.1,0.2-0.3c0.1-0.2,0.2-0.3,0.2-0.5l5.6,7.2
	l5.6-7.2c0,0.2,0.1,0.4,0.2,0.6c0,0.2,0.1,0.3,0.2,0.3c-0.3,0.3-0.4,0.8-0.2,1.2c0.2-0.4,0.6-0.8,0.7-0.7c0.7,0.4,1.3-0.1,2.1,0
	c0.3,0.5,0.7,0.8,1.2,1c0-0.4,0.1-0.8,0.3-1.1c0.4,0.5,0.9,1,1.5,1.3c-0.1-0.4,0-0.9,0.1-1.3c0.4,0.4,0.8,0.7,1.3,1
	c-0.2-0.4-0.1-0.9,0.1-1.3c0.3-0.2,0.6-0.3,0.9-0.4c0.4-0.1-0.4-2.7,0.4-3.5c0.6-0.5,1.4-0.7,2.1-0.5c-0.1,0.6,0,1.3,0.3,1.9
	c1.2,2.3,4.7,4.4,4.8,4.7c0.1,0.9,0.1,1.8-0.1,2.7c-0.2,0.6-1.3,0.5-1.3,0.5h0.1l0,0c-0.1,0-0.1,0-0.2-0.1l0,0
	c0.1-2.2-1.4-3.7-4-4.1c-2.8-0.5-6.3,0.5-6.7,2.4c-0.2,0.8,0.8,0.9,1.1,2.3c-3.4,1.2-6.9,1.8-10.5,1.7c-3.6,0.1-7.1-0.4-10.5-1.7
	c0.3-1.4,1.3-1.5,1.1-2.3c-0.4-1.9-4-2.9-6.7-2.4c-2.6,0.4-4,1.9-4,4.1l0,0l0,0.1l0,0c0,0-1.1,0.1-1.3-0.5
	C46.8,111.8,46.7,110.9,46.9,110z"/>
<polygon class="st1" points="65.6,66.1 64.6,67.8 66.4,67.2 66.3,69.1 67.7,67.8 68.4,69.6 69.1,67.8 70.5,69.1 70.3,67.2 
	72.2,67.8 71.2,66.1 73.1,65.8 71.5,64.8 73.1,63.8 71.2,63.5 72.2,61.8 70.3,62.4 70.5,60.5 69.1,61.8 68.4,60 67.7,61.8 
	66.3,60.5 66.4,62.4 64.6,61.8 65.6,63.5 63.7,63.8 65.3,64.8 63.7,65.8 "/>
<path class="st0" d="M162.1,74.3l-4.2,19.5l-4.1-19.5h-12.9c2.8,1.5,4.5,4.4,4.5,7.6v6.7h-6.5v-7.3c0-1.4-1.2-2.6-2.6-2.6
	s-2.6,1.2-2.6,2.6v11h11.7V110c0,3.4-2,6.5-5.1,7.9h11.6v-29l6,29l6-29v29h6.5V74.3H162.1z"/>
<path class="st0" d="M133.7,101.2v9c0,1.5,1.1,2.7,2.6,2.9c1.4,0,2.6-1.1,2.6-2.5c0,0,0,0,0,0V97.5h-11.6V81.9
	c0-3.2,1.8-6.1,4.5-7.6h-11v36.3c0,1.4-1.2,2.6-2.6,2.6s-2.6-1.2-2.6-2.6V74.3h-6.5V110c0.2,5,4.4,9,9.4,8.8c4.8-0.2,8.6-4,8.8-8.8
	v-8.8H133.7z"/>
<polygon class="st2" points="148.1,117.9 148.1,74.3 149.2,74.3 149.2,117.9 148.1,117.9 "/>
<polygon class="st2" points="123.4,117.9 123.4,74.3 124.5,74.3 124.5,117.9 123.4,117.9 "/>
<polygon class="st2" points="173.4,117.9 173.4,74.3 174.4,74.3 174.4,117.9 173.4,117.9 "/>
<polygon class="st2" points="105.4,117.9 105.4,74.3 106.4,74.3 106.4,117.9 105.4,117.9 "/>
<polygon class="st2" points="134,117.9 127.2,117.9 127.2,111.1 "/>
<path class="st0" d="M76.1,78.5l-2.5-3.8c-0.2-0.3-0.5-0.4-0.8-0.5c-0.3-0.1-0.7,0-1.1,0c-0.4-0.1-0.7-0.2-1.1-0.3
	c-0.7,0.1-1.5,0.1-2.2-0.1l0,0c-0.7,0.2-1.5,0.2-2.2,0.1c-0.4,0.1-0.7,0.2-1.1,0.3c-0.3,0-0.8-0.1-1.1,0c-0.3,0.1-0.6,0.3-0.8,0.5
	l-2.5,3.8l0.3,25.7l7.4,9.4l0,0l0,0l0,0l7.4-9.4L76.1,78.5z"/>
<path class="st3" d="M61,104.2"/>
<path class="st3" d="M60.7,78.5"/>
<polygon points="73.7,74.3 73.3,74.6 75.9,78.6 75.5,104.1 68.4,113.3 61.3,104.1 60.9,78.6 63.6,74.5 63.2,74.3 60.5,78.5 
	60.8,104.2 60.8,104.3 68.4,114 76,104.3 76.3,78.5 "/>
<path class="st1" d="M76.3,105.2c0,0-1.4-1-1.6,0.5c-0.2,0.1-0.3,0.3-0.5,0.4c-0.3,0.7,0.4,1.9,1,1.9c0.5,0,0.9-0.1,1.4-0.1
	L76.3,105.2z"/>
<path class="st1" d="M77.9,96.3c0,0,0.5,0.9,0.1,1.3s-0.5,0.4-0.5,0.4c-0.2,0.3-0.4,0.6-0.7,0.7c-0.4,0.2-0.8,0.3-1.3,0.2
	c0,0-0.1,0.3-0.6,0.2S74.1,98,74.1,98c-0.2,0-0.4-0.1-0.6-0.3c-0.3-0.3-0.3-0.7,0-1c0.3-0.3,0.6-0.3,0.7-0.7c0-0.6,0.2-1.1,0.5-1.6
	c0.5-0.6,1-1.1,1.6-1.5L77.9,96.3z"/>
<path class="st2" d="M91,79.1c-0.1,0.7-0.4,1.3-0.8,1.8c-0.4,0.4-0.8,0.8-1.2,1.3c-0.2-0.2-0.3-0.5-0.4-0.8c-0.3,0.1-0.7,1-0.7,1
	s-0.5-0.3-0.4-0.6c-0.1,0-0.5,0.4-0.8,0.3c0,0.7-0.5,1.8-1,2c0-0.2-0.5,0.3-0.5,0.2c-0.4,0.4-0.9,0.1-1.3,0.2
	c-3,0.9-3.1,3.7-3.8,4.4c-1.2,1-2.2,2.1-3,3.4c-0.1,0.7-2.8,1.7-2.8,3.7c0,0.3-0.2,0.7,0.8,1.1c0.1,0.3,0.5,0.5,0.9,0.6
	c0.2-0.8,0.8-0.7,1-0.6c0.1-0.3,0.5-0.5,0.8-0.4c0.2,0.1,0.3,0.2,0.4,0.4c-0.1-0.3-0.1-0.7,0-1c0.1-0.2,2.1-2.4,3-2.7
	c0.6-0.3,1.3-0.4,2-0.5c-0.1,0.9,0.5,1.6,1.5,2.4c0-0.3,0-0.6,0-0.8c0.6,0.4,1,0.9,1.4,1.6c0-0.2,0-0.4,0.1-0.6
	c1,1.5,2.4,4.6-0.1,5.7c0-0.8-0.7-2.9-2.2-2.9c-1.5,0-3.5,0.6-4.2,2.1c-0.4,1.1-0.5,2.2-0.5,3.3c0.1,0.6-0.1,2.2-2.8,1.4
	c0,0.1-0.4-0.2-0.4,0c0.3,0,0.5,0.2,0.5,0.7c0,0.1-0.4-0.1-0.4,0c0.3,0,0.4,0.5,0.3,0.8c0.6,0.5-0.2,0.8,0.3,1.3
	c0.2,0,0.4,0.1,0.5,0.2c0.3,0.2,0.6,0.4,0.8,0.7c0.2-0.4,0.3-0.8,0.7-1c0.2,0.4,1,1.2,1.2,1.1c0.2-0.1,0-0.5,0.2-0.9
	c0.4,0.2,0.5,0.5,1,0.6c0-0.4,0.1-0.8,0.3-1.1c0.2-0.2,0.5-0.3,0.8-0.3c-1.1-5.1,2.5-4.2,3-3.7c-0.2,2.6,4.4,5.4,5,6.2
	c0.3,0.4,0.8,3.9-1.1,3.6c-0.1,0-0.3,0-0.3,0c-0.1,0,0,0.1,0,0.1c-0.1,0.1-0.2,0.2-0.1,0.4c0,0.2,0.7,0.4,0.6,0.9
	c0.7,0,0.8,1.2,0.8,1.2c0.9-0.1,1.8-0.4,2.7-0.8c0.4-0.2,0.2-0.9,0.4-1.2s0.6-0.2,0.9-0.2c0-0.4-0.9-1-0.9-1l1.1,0.2
	c0,0-0.4-1-1-1.2c0.4-0.3,0.9-0.3,1.3,0c0.1-0.6-1-0.9-1-0.9s0.3-1.1,0-1.3c-0.1-0.1-0.3-0.2-0.4-0.3c-0.5-0.3-0.9-0.8-1.2-1.3
	c-0.8-1.3-0.7-2.9,0.2-4.1c0.6-0.8,0.4-0.1,1.4-0.1s4-0.5,2.7-6c-0.4-1.5-0.9-2.9-1.6-4.3c-0.9-1.9-1.5-2.3-1.6-4.2
	c-0.2-1.7,0.3-2.8,1.1-3s2.1,0,1.8-0.7c-0.4-0.6-1.2-0.9-1.8-0.5c-0.8,0.3-2.5,1.4-2.5,2.8c0,4.3,1.8,4.9,2.8,8.6
	c0.3,1.3,0.7,3.8-0.1,4.6c-0.4,0.4-0.7,0.1-0.9-0.1c-0.2-0.2-1-2.2-1.6-3.8c-0.3-0.7-1-1.7-1.6-2.8c-0.1-0.1-0.3-0.5-0.3-0.6
	c-0.3-1-0.8-2-1.3-2.9l0.2-3.7c0,0,1.1-1.1,2.3-2.3s2.1-5.6,1.9-5.8s-0.2-1.2-0.2-1.2c0.4-0.4,0.7-0.9,0.8-1.5
	c-1.2,1.5-2,1.4-2.4,1.4C91,78.1,91.1,78.6,91,79.1z"/>
<path class="st2" d="M80.9,78.8c0,0-0.7,2.1-0.9,2.8s-0.2,3.1-0.2,3.1c-0.8,0.9-1.2,2-1.4,3.2c-2,0-1.8-1.8-1.8-2.4s0.7-3.5,0.8-5
	c0-0.4,0.1-0.7,0.2-1.1c0.5,0.3,0.9-0.2,1.1-0.5c0.1,0.1,0.1,0.3,0.1,0.4c0,0.6-0.1,1.4-0.1,1.9c0.2,0.1,0.4,0.2,0.7,0.2l0.4-2
	L80.9,78.8z"/>
<path class="st4" d="M82.4,79.1c0,0.3,0.2,0.6,0.5,0.7c0.4,0.1,0.8,0.2,1.3,0.2c0.5,0,1.6,0.1,1.6,0.1c-0.1-0.2-0.3-0.3-0.5-0.4
	c-0.3-0.1-0.7-0.2-1-0.2c-0.3,0-0.9,0.1-1.2-0.1L82.4,79.1z"/>
<path class="st2" d="M72.7,73c0.2-0.1,0.4-0.1,0.7-0.1c0.5,0,0.8,0.2,0.8,0.4s0.3,0.7,0.1,0.9s-0.2,0.2-0.6,0.2
	c-0.3,0-0.6-0.1-0.8-0.3C72.8,73.8,72.8,73.4,72.7,73z"/>
<path class="st2" d="M68.4,72.6c0.5-0.1,1-0.1,1.5-0.1c0.3,0.1,0.8,0.4,0.7,0.7s0.1,0.5-0.2,0.7c-0.5,0.2-1,0.2-1.5,0.1
	c-0.2-0.1-0.4-0.2-0.6-0.3L68.4,72.6z"/>
<path class="st2" d="M66.2,73.2l0.3-0.6c-0.4-0.2-0.8-0.3-1.3-0.2c-0.5,0.2-0.6,0.1-0.9,0.3c-0.2,0.3-0.3,0.6-0.4,0.9
	c0.1,0.4,0.4,0.7,0.8,0.7c0.5-0.1,1-0.3,1.5-0.6L66.2,73.2z"/>
<path class="st5" d="M74.2,64.9c-0.4,3-2.9,5.3-6,5.5c-3.1,0-5.5-2.5-5.5-5.5c0,0,0,0,0,0c0-0.2,0-0.3,0-0.4
	c-1.2,3.1,0.3,6.5,3.4,7.7c0.7,0.3,1.4,0.4,2.1,0.4c3.4,0,6.2-2.8,6.2-6.2C74.4,65.9,74.4,65.4,74.2,64.9z"/>
<polygon class="st5" points="71.1,64.8 72.7,63.9 70.8,63.5 71.7,62.1 70.2,62.7 70.3,60.8 69.1,62 68.4,60.5 68.4,60.7 67.7,62.2 
	66.5,60.9 66.6,62.7 65,62.2 65.8,63.6 64.2,63.8 65.5,64.9 64.2,65.7 65.7,66 64.9,67.6 66.5,67 66.6,68.6 67.8,67.5 68.4,68.7 
	68.4,69.2 69,67.5 70.3,68.6 70.2,67 71.7,67.3 70.8,66 72.5,65.7 "/>
<path class="st6" d="M68.4,69.3"/>
<path class="st6" d="M78.9,79c0,0,0,0.3-0.1,0.9c-0.1,0.5-0.1,1-0.2,1.3s0.8,0.1,0.8,0.1l0.2-2.1L78.9,79z"/>
<path class="st5" d="M79.4,74.9c0.3-0.1,0.7-0.1,1,0c0.8-7.1,3.6-10.9,8.2-9.6c0-0.6-1.5-1-2-1c-3.3,0-5.2,3.4-5.7,4.2
	C80.1,70.5,79.6,72.7,79.4,74.9z"/>
<path class="st2" d="M87.7,80.6L87.7,80.6z"/>
<path class="st2" d="M92.7,76.3c0.7-0.6,0.3-0.9-0.3-0.9c-0.6,0-1.2,0.1-1.8,0.3l0.9-0.3c0,0-1.6-0.5-2.2-0.7
	c-1.1-0.1-2.2,0-3.3,0.3c-0.3,0.2-0.6,0.4-0.8,0.7c-0.7,0.1-1.3,0.4-1.9,0.7c-0.2,0.2-0.4,0.3-0.3,0.6s0.5,0.4,0.5,0.4
	c0.7-0.2,1.3-0.2,2-0.1c0.5,0.1,1.2,0.9,0.5,1.3c0.9,0.2,1.2,0.7,1.3,1.8c0.1,0.1,0.4-1.2,0.4-1.1c0.3,0.4,0.3,0.9,0.1,1.4
	c0.1-0.3,0.3-0.5,0.6-0.7l0,0l0.5-0.2l0,0c0.2,0,0.4,0,0.5,0c0.5,0,0.9-1.5,0.9-1.5s0.3,0.2,0.3,0c0-0.8-0.3-1.5-0.9-2
	c0.4,0,1.2,0.7,1.3,1C91.6,77.1,92.2,76.8,92.7,76.3z M87.4,77.5c-0.5,0-0.9-0.3-1.2-0.7L86,76.4c0.6-0.5,1.5-0.5,2.1,0
	C88.7,76.8,88.1,77.5,87.4,77.5z"/>
<path class="st5" d="M68.4,115.7c3.6,0.1,7.2-0.5,10.7-1.7c0.1-0.6-0.2-1.2-0.6-1.6c-0.5-0.5-0.9-1.1,0-2.1c1.5-1.5,9.7-2.6,9.7,2.8
	c0,2.3-0.2,1.9,0.9,3s1.7,0.6,2.2,0.6c-1,0.8-1.9,1.8-2.4,3c-4,0.6-1.9-4.4-2.8-5.3s-1.7-0.9-3-0.4c0.1,0.7,0.3,1.4,0.5,2
	c0,0-2,4-15.2,4.2C67.9,118.8,67.9,117.2,68.4,115.7z"/>
<path class="st2" d="M82.9,116c-0.6,0.7-1.6,1-2.5,0.8c0.7-0.2,1.8-0.7,1.9-1.1c-0.7,0.4-1.4,0.5-2.2,0.4c0,0,1.7-0.5,2-1.1
	c-0.7,0.2-1.4,0.2-2.1,0.2c0.7-0.2,1.4-0.5,2-1.1c-0.7,0.3-1.5,0.5-2.3,0.3c1-0.2,1.9-0.8,2.6-1.5C82.3,113.9,82.5,115,82.9,116z"/>
<path class="st2" d="M81,111.1c-1.6,1.6-3.1,1-3,0.6c0.2-0.6,1-1.2,2.3-1.2c-0.6,0.1-1.1,0.5-1.5,1c0.5-0.3,1.2-0.5,1.8-0.6
	c-0.5,0.2-1,0.6-1.4,0.9C79.8,111.5,80.4,111.3,81,111.1z"/>
<path class="st2" d="M88.1,113.2c0.1-1.1-0.7-2.1-1.8-2.1c-0.1,0-0.2,0-0.4,0c1.2,0.3,1.3,1,1.3,1s-0.5-0.7-2-0.4
	c1.5,0,1.8,0.8,1.8,0.8c-0.7-0.4-1.6-0.5-2.3-0.3c1.7,0,1.9,0.9,1.9,0.9s-0.9-1.1-2.9-0.2c3.2-0.8,2.6,1.8,2.6,1.8s0.2,3.4,0.5,3.7
	c0-1.1,0.4-2.1,1.1-2.8c0.1,0.8,0.8,1.4,1.6,1.3c0.2,0,0.3-0.1,0.5-0.1c-0.3-0.1-0.6-0.3-0.8-0.6l-0.4-0.4c-0.2,0-0.4-0.1-0.6-0.2
	c-0.3-0.1-0.4-0.9-0.4-0.9l-0.3-0.3c0.1-0.3,0.2-0.7,0.3-1C87.8,113.3,88,113.2,88.1,113.2"/>
<path class="st2" d="M78.5,112.3l0.6,1.7c0,0,2-1,2.4-1.4c0.4-0.4,1.1-0.8,1.2-1.1c0.1-0.4,0.4-0.9-0.3-0.8
	c-0.7,0.2-1.3,0.6-1.8,1.1C80,112,79.3,112.2,78.5,112.3z"/>
<path class="st7" d="M80.2,74.8c0.1,0,0.2,0,0.3,0.1c0.3-1,2.4-2.4,3.5,0c0.3-2.2-0.8-2.5-1.9-2.5c1.1-0.9,2.7-0.8,3.7,0.2
	c0-1.2-1.3-2-2.9-1.6c0.6-0.8,2.1-0.8,3.7,0.2c-0.6-1.1-1.8-1.7-3-1.7c2-0.4,2.5-0.4,4.2,0.5c-0.6-1.3-2-1.9-3.4-1.7
	c1.2-0.7,3.3-0.6,3.9,0.1c-0.9-0.9-2-1.7-3.3-1.3c1.3-0.8,2.9-0.7,4.1,0.2c-0.5-1.2-2.6-2.2-3.9-1.5c1.6-1,4.1-0.4,4.4,0
	C84.6,62.2,80.3,68.2,80.2,74.8z"/>
<path class="st5" d="M90.1,78c0,0.3-0.2,0.5-0.4,0.7c0.1-0.1,0.1-0.3,0-0.4c-0.3,0.9-1.6,1-2.1,0.8c0.4,0.8,0,1.8-0.8,2.2
	c-0.1,0-0.2,0.1-0.3,0.1c-0.6-0.4-3-0.5-2.8,0.5c0.3-0.4,1-0.5,1.4-0.2c0.2,0.1,0.3,0.3,0.3,0.5c0,0,0.9,1.7-1.2,2.1
	c-4.1,0.8-3.9,4.1-3.9,4.1c0.7-1.6,2-2.9,3.7-3.6c-0.1,0.1-0.2,0.2-0.2,0.3c0.4-0.2,0.8-0.3,1.2-0.4c0,0.1-0.1,0.2-0.2,0.3
	c1.5-0.5,2.7-1.8,2.9-3.4c0,0-0.4-1.7,1.6-1.7C89.9,79.7,90.1,79.5,90.1,78z"/>
<path class="st5" d="M87.1,104.4c-0.1,0-0.2,0.1-0.3,0.2c0-0.8,0.2-1.6,0.6-2.3c-0.1,0-0.2,0-0.3,0c0.3-0.5,0.6-1,0.9-1.4
	c1.9-2.8-2-5.8-2-6c0,0.2,0,0.5,0,0.5c-0.5-0.6-1-1.2-1.4-1.9c-0.1,0.2-0.2,0.4-0.2,0.6c0,0-1-1.1-0.8-2c0.5-0.9,1.5-1.5,2.5-1.6
	c-1.4-0.2-2.9,0.3-3.8,1.4c-1.6,0.4-3,1.4-4,2.8c-1.1,1.3,0.1,2.4-0.9,3c0,0.1,0.3,0.2,0.7-0.3c0-0.1,0-0.7,0-0.8
	c-0.1-0.6,0.4-1.4,1.9-2.5c0.8-0.5,1.6-0.9,2.5-1.1c0.6,1.1,1.4,2,2.5,2.6c-0.1-0.3-0.1-0.4-0.1-0.4c0.6,0.3,1.1,0.7,1.4,1.3
	c0-0.2,0-0.3-0.1-0.5c0.7,0.9,1.1,2.1,1.1,3.2c-0.1,0.7-0.6,1.1-1.3,1.9c-1.3-0.2-5-0.5-4.1,4.7c0,0.7-2.7,1-4.9,1.3
	c-0.9,0.2-1,0.6-2.2,0.6c0.1,0.2-0.2,0.6,2.4,0.3c0.5,0.2,0.6,0.7,0.7,0.7s0.3-0.8,0.6-0.8c0.3,0,0.9,1,1.2,1.1
	c0-0.4,0.1-0.8,0.2-1.2c0.3,0.3,0.6,0.6,1,0.7c0-0.4,0.1-0.7,0.3-1c0.3-0.3,0.8-0.2,0.9-0.4c0.3-0.7-0.4-2.2,0.2-3.1
	s1.4-0.9,2.8-0.9c-0.3,1.6,1.6,4.6,4.2,5.7C88,107.8,87.2,106.2,87.1,104.4z"/>
<path class="st5" d="M80.9,78.8c0,0,0.1,0.5-0.7,1.7c-0.3,0.5-0.2,3.1-0.4,4c-0.4,0.6-0.7,1.2-1,1.9c0,0-0.3,0.3-0.3,0.2
	c0.1-0.2,0.1-0.5,0-0.7c-0.1,0.1-0.2,0.2-0.3,0.2c0-0.1,0.1-0.3,0.1-0.4c-0.1,0.1-0.1,0.2-0.2,0.3c0.1-0.3,0.1-0.5,0.1-0.8
	c0-0.9,0.9-5.3,0.9-5.3s0.2-1,0.8-1S80.9,78.8,80.9,78.8z"/>
<path class="st5" d="M92.9,102.6c0.3,0.1,0.7,0.1,1,0.1c-0.1,0-0.1-0.1-0.2-0.2c0.6,0.1,1.2-0.2,1.6-0.7c-0.1,0-0.2,0-0.3,0
	c1.3-1.2,0.8-4.9-0.3-7.8c1.6,2.1,2.3,6.1,1.6,7.9c-0.2,1-1.2,1.7-2.2,1.5c-0.6,0-1.1,0-1.7-0.1C92.6,103.1,92.8,102.8,92.9,102.6z"
	/>
<path class="st5" d="M92.4,108.4c0.8,1.6-0.2,4-0.3,5.3c0,0.8,0,1.4-0.3,1.6c0.4-0.1,0.6,0.1,0.9-0.3c0.3-0.4,0.3-1.1,0.4-1.2
	s0.7-0.1,0.9-0.2c0-0.4-0.9-1-0.9-1c0.4,0,0.7,0,1.1,0c0-0.4-0.8-1.2-0.8-1.2s0.1-0.1,1.2-0.1c-0.2-0.5-1-0.8-1-0.8
	c0.1-0.4,0.2-0.8,0.1-1.2C93.3,109.1,92.9,108.9,92.4,108.4z"/>
<path class="st6" d="M85.6,78.2c-0.3,0.1-0.5,0.1-0.8,0.1c0.8-0.1,0.9-0.8,0.6-1c0.5,0.1,0.8,0.4,0.8,0.7s0.2,0.4-0.5,0.7
	c-0.4,0.2-1.9,0.7-2.1-0.3C84.2,78.8,85,78.7,85.6,78.2z"/>
<path class="st5" d="M90.9,77.2l0.1,0.4c0.4-0.1,0.9-0.2,1.2-0.4c0.5-0.4,1.2-1.3,1.1-1.4c-0.1-0.1-0.2-0.1-0.4-0.2
	C92.6,77,90.9,77.2,90.9,77.2z"/>
<path class="st6" d="M77,98.1c-0.2,0.5-0.7,0.8-1.2,0.6c0,0,0,0.1-0.1,0c1.2,0.6,1.6-0.3,1.6-0.5C77.2,98.2,77.1,98.2,77,98.1z"/>
<path class="st5" d="M84.4,66.4c-0.4,0.2-1,0.8-0.5,1S84.4,66.9,84.4,66.4z"/>
<path class="st5" d="M83.5,66.7c-0.4,0.2-1,0.8-0.5,1S83.5,67.2,83.5,66.7z"/>
<path class="st5" d="M83.4,68.1c-0.4,0.2-1,0.8-0.5,1C83.3,69.3,83.4,68.6,83.4,68.1z"/>
<path class="st5" d="M82.2,69.1c-0.4,0.2-1,0.8-0.5,1S82.2,69.6,82.2,69.1z"/>
<path class="st5" d="M81.5,71.6c-0.4,0.2-1,0.8-0.5,1S81.5,72.1,81.5,71.6z"/>
<path class="st5" d="M82.2,70.4c-0.4,0.2-1,0.8-0.5,1S82.2,70.9,82.2,70.4z"/>
<path class="st1" d="M60.5,105.2c0,0,1.4-1,1.6,0.5c0.2,0.1,0.3,0.3,0.5,0.4c0.3,0.7-0.4,1.9-1,1.9c-0.5,0-0.9-0.1-1.4-0.1
	L60.5,105.2z"/>
<path class="st1" d="M58.9,96.3c0,0-0.5,0.9-0.1,1.3c0.4,0.4,0.6,0.4,0.6,0.4c0.2,0.3,0.4,0.6,0.7,0.7c0.4,0.2,0.8,0.3,1.3,0.2
	c0,0,0.1,0.3,0.6,0.2s0.8-1.2,0.8-1.2c0.2,0,0.4-0.1,0.6-0.3c0.3-0.3,0.3-0.7,0-1c-0.3-0.3-0.6-0.3-0.7-0.7c0-0.6-0.2-1.1-0.5-1.6
	c-0.5-0.6-1-1.1-1.6-1.5L58.9,96.3z"/>
<path class="st2" d="M45.8,79.1c0.1,0.7,0.4,1.3,0.8,1.8c0.4,0.4,0.8,0.8,1.2,1.3c0.2-0.2,0.3-0.5,0.4-0.8c0.4,0.1,0.7,1,0.7,1
	s0.5-0.3,0.4-0.6c0.1,0,0.5,0.4,0.8,0.3c0,0.7,0.5,1.8,1,2c0-0.2,0.5,0.3,0.5,0.2c0.4,0.4,0.9,0.1,1.4,0.2c3,0.9,3.1,3.7,3.8,4.4
	c1.2,0.9,2.2,2.1,3,3.4c0.1,0.7,2.9,1.7,2.9,3.7c0,0.3,0.2,0.7-0.8,1.1c-0.1,0.3-0.5,0.5-0.9,0.6c-0.2-0.8-0.8-0.7-1-0.6
	c-0.1-0.3-0.5-0.5-0.8-0.4c-0.2,0.1-0.3,0.2-0.4,0.4c0.1-0.3,0.1-0.7,0-1c-0.1-0.2-2.1-2.4-3-2.7c-0.6-0.3-1.3-0.4-2-0.5
	c0.1,0.9-0.5,1.6-1.5,2.4c0-0.3,0-0.6,0-0.8c-0.6,0.4-1,0.9-1.4,1.6c0-0.2,0-0.4-0.1-0.6c-1,1.5-2.4,4.6,0.1,5.7
	c0-0.8,0.7-2.9,2.2-2.9c1.5,0,3.5,0.6,4.2,2.1c0.4,1.1,0.5,2.2,0.5,3.3c-0.1,0.6,0.1,2.2,2.8,1.4c0,0.1,0.4-0.2,0.4,0
	c-0.3,0-0.5,0.2-0.5,0.7c0,0.1,0.4-0.1,0.5,0c-0.3,0-0.4,0.5-0.3,0.8c-0.6,0.5,0.2,0.8-0.3,1.3c-0.2,0-0.4,0.1-0.5,0.2
	c-0.3,0.2-0.6,0.4-0.8,0.7c-0.1-0.4-0.3-0.8-0.6-1c-0.2,0.4-1,1.2-1.2,1.1s0-0.5-0.2-0.9c-0.4,0.2-0.5,0.5-1,0.6
	c0-0.4-0.1-0.8-0.3-1.1c-0.2-0.2-0.5-0.3-0.8-0.3c1.1-5.1-2.5-4.2-3-3.7c0.2,2.6-4.4,5.4-5,6.2c-0.3,0.4-0.8,3.9,1.1,3.6
	c0.1,0,0.3,0,0.4,0s0,0.1,0,0.1c0.1,0.1,0.2,0.2,0.1,0.4c0,0.2-0.7,0.4-0.6,0.9c-0.7,0-0.8,1.2-0.8,1.2c-0.9-0.1-1.8-0.4-2.6-0.8
	c-0.4-0.2-0.3-0.9-0.4-1.2c-0.2-0.3-0.6-0.2-0.9-0.2c0-0.4,0.9-1,0.9-1l-1.1,0.2c0,0,0.4-1,1-1.2c-0.4-0.3-0.9-0.3-1.3,0
	c-0.1-0.6,1-0.9,1-0.9s-0.3-1.1,0-1.3c0.1-0.1,0.3-0.2,0.4-0.3c0.5-0.4,0.9-0.8,1.2-1.3c0.8-1.3,0.7-2.9-0.2-4.1
	c-0.6-0.8-0.5-0.1-1.4-0.1c-0.9,0-4-0.5-2.7-6c0.4-1.5,0.9-2.9,1.6-4.3c0.9-1.9,1.5-2.3,1.7-4.2c0.1-1.7-0.4-2.8-1.1-3
	c-0.8-0.2-2.1,0-1.8-0.7c0.4-0.6,1.2-0.9,1.8-0.5c0.8,0.2,2.5,1.4,2.5,2.7c0,4.3-1.8,4.9-2.8,8.6c-0.3,1.3-0.7,3.8,0.1,4.6
	c0.4,0.4,0.7,0.1,0.9-0.1s1-2.2,1.6-3.8c0.3-0.7,1-1.7,1.6-2.8l0.3-0.6c0.3-1,0.8-2,1.3-2.9L48.2,87c0,0-1.1-1.1-2.3-2.3
	c-1.2-1.2-2.1-5.6-1.9-5.8c0.2-0.2,0.2-1.2,0.2-1.2c-0.4-0.4-0.7-0.9-0.8-1.5c1.2,1.5,2.1,1.4,2.4,1.4
	C45.7,78.1,45.7,78.6,45.8,79.1z"/>
<path class="st2" d="M55.8,78.8c0,0,0.7,2.1,0.9,2.8c0.1,0.6,0.2,3.1,0.2,3.1c0.8,0.9,1.2,2,1.4,3.2c2,0,1.8-1.8,1.8-2.4
	s-0.7-3.5-0.8-5c0-0.4-0.1-0.7-0.1-1.1c-0.5,0.3-0.9-0.2-1.1-0.5c0,0.1-0.1,0.3-0.1,0.4c0,0.6,0.1,1.4,0.1,1.9
	c-0.2,0.1-0.4,0.2-0.7,0.2l-0.4-2L55.8,78.8z"/>
<path class="st4" d="M54.3,79.1c0,0.3-0.2,0.6-0.5,0.7c-0.4,0.1-0.8,0.2-1.3,0.2c-0.5,0-1.6,0.1-1.6,0.1c0.1-0.2,0.3-0.3,0.5-0.4
	c0.3-0.1,0.7-0.2,1-0.2c0.4,0,0.9,0.1,1.2-0.1L54.3,79.1z"/>
<path class="st6" d="M57.9,79c0,0,0,0.3,0.1,0.9c0.1,0.5,0.1,1,0.2,1.3c0,0.3-0.8,0.1-0.8,0.1l-0.2-2.1L57.9,79z"/>
<path class="st5" d="M57.3,74.9c-0.3-0.1-0.7-0.1-1,0c-0.8-7.1-3.5-10.9-8.2-9.6c0-0.6,1.5-1,2-1c3.3,0,5.2,3.4,5.7,4.2
	C56.7,70.5,57.2,72.7,57.3,74.9z"/>
<path class="st2" d="M49,80.6L49,80.6z"/>
<path class="st2" d="M45.9,77.2c0.2-0.3,0.9-1,1.3-1c-0.6,0.5-0.9,1.2-0.9,2c0,0.3,0.3,0,0.3,0s0.3,1.5,0.9,1.5c0.2,0,0.4,0,0.5,0
	l0,0l0.5,0.2l0,0c0.2,0.2,0.5,0.4,0.6,0.7c-0.2-0.4-0.2-1,0.1-1.4c0.1-0.1,0.3,1.2,0.4,1.1c0.1-1.1,0.4-1.6,1.3-1.8
	c-0.7-0.3-0.1-1.2,0.5-1.3c0.7-0.1,1.3,0,2,0.1c0,0,0.4-0.1,0.5-0.4c0.1-0.3,0-0.4-0.3-0.6c-0.6-0.3-1.2-0.5-1.9-0.7
	c-0.2-0.3-0.5-0.5-0.8-0.7c-1.1-0.3-2.2-0.4-3.3-0.3c-0.6,0.1-2.2,0.7-2.2,0.7l0.9,0.3c-0.6-0.2-1.2-0.3-1.8-0.3
	c-0.7,0-1,0.3-0.3,0.9C44.6,76.8,45.2,77.1,45.9,77.2z M48.7,76.4c0.6-0.5,1.5-0.5,2.1,0l-0.2,0.4c-0.3,0.4-0.7,0.6-1.2,0.7
	C48.7,77.5,48,76.8,48.7,76.4L48.7,76.4z"/>
<path class="st5" d="M68.4,115.7c-3.6,0.1-7.2-0.5-10.7-1.7c-0.1-0.6,0.2-1.2,0.6-1.6c0.5-0.5,1-1.1,0-2.1c-1.5-1.5-9.7-2.6-9.7,2.8
	c0,2.3,0.2,1.9-0.9,3s-1.7,0.6-2.2,0.6c1,0.8,1.9,1.8,2.5,3c4,0.6,1.9-4.4,2.8-5.3s1.7-0.9,3-0.4c-0.1,0.7-0.3,1.4-0.5,2
	c0,0,2,4,15.2,4.2C68.9,118.8,68.9,117.2,68.4,115.7z"/>
<path class="st2" d="M53.9,116c0.6,0.7,1.6,1,2.5,0.8c-0.6-0.2-1.7-0.7-1.9-1.1c0.7,0.4,1.4,0.5,2.2,0.4c0,0-1.7-0.5-2-1.1
	c0.7,0.2,1.4,0.2,2.1,0.2c-0.7-0.2-1.4-0.5-2-1.1c0.7,0.3,1.5,0.5,2.3,0.3c-1-0.2-1.9-0.8-2.6-1.5C54.5,113.9,54.3,115,53.9,116z"/>
<path class="st2" d="M55.8,111.1c1.6,1.6,3.1,1,3,0.6c-0.2-0.6-1-1.2-2.3-1.2c0.6,0.1,1.1,0.5,1.5,1c-0.5-0.3-1.2-0.5-1.8-0.6
	c0.5,0.2,1,0.6,1.4,0.9C57,111.5,56.4,111.3,55.8,111.1z"/>
<path class="st2" d="M48.7,113.2c-0.1-1.1,0.7-2.1,1.8-2.1c0.1,0,0.3,0,0.4,0c-1.2,0.3-1.3,1-1.3,1s0.5-0.7,2-0.4
	c-1.5,0-1.8,0.8-1.8,0.8c0.7-0.4,1.6-0.5,2.4-0.2c-1.7,0-1.9,0.9-1.9,0.9s0.9-1.1,2.9-0.2c-3.2-0.8-2.5,1.8-2.5,1.8
	s-0.2,3.4-0.5,3.7c0-1.1-0.4-2.1-1.1-2.8c-0.1,0.8-0.8,1.4-1.6,1.3c-0.2,0-0.3-0.1-0.5-0.1c0.3-0.1,0.6-0.3,0.8-0.6l0.4-0.4
	c0.2,0,0.4-0.1,0.6-0.2c0.2-0.1,0.4-0.9,0.4-0.9l0.3-0.3c-0.1-0.3-0.2-0.7-0.3-1C49,113.3,48.9,113.2,48.7,113.2"/>
<path class="st2" d="M58.2,112.3l-0.6,1.7c0,0-2-1-2.4-1.4c-0.4-0.4-1.1-0.8-1.2-1.1s-0.4-0.9,0.3-0.8c0.7,0.2,1.3,0.6,1.9,1.1
	C56.8,112,57.5,112.2,58.2,112.3z"/>
<path class="st7" d="M56.6,74.8c-0.1,0-0.3,0-0.3,0.1c-0.3-1-2.4-2.4-3.5,0c-0.3-2.2,0.8-2.5,1.9-2.5c-1.1-0.9-2.7-0.8-3.7,0.2
	c0-1.2,1.3-2,2.9-1.6c-0.6-0.8-2.1-0.8-3.7,0.2c0.6-1.1,1.8-1.7,3-1.7c-2-0.4-2.5-0.4-4.1,0.5c0.6-1.3,2-1.9,3.4-1.7
	c-1.2-0.7-3.3-0.6-3.9,0.1c0.9-0.9,2-1.7,3.3-1.3c-1.3-0.8-2.9-0.7-4.1,0.2c0.5-1.2,2.6-2.2,3.9-1.5c-1.6-1-4.1-0.4-4.4,0
	C52.2,62.2,56.4,68.2,56.6,74.8z"/>
<path class="st5" d="M46.7,78c0,0.3,0.2,0.5,0.4,0.7c-0.1-0.1-0.1-0.3,0-0.4c0.3,0.9,1.6,1,2.1,0.8c-0.4,0.8,0,1.8,0.8,2.2
	c0.1,0,0.2,0.1,0.3,0.1c0.6-0.4,3-0.5,2.8,0.5c-0.6-0.6-1.3-0.3-1.7,0.3c-0.4,0.7-0.2,1.5,0.5,1.9c0.2,0.1,0.5,0.2,0.7,0.2
	c0.4,0.1,0.8,0.2,1.2,0.3c1.6,0.6,2.7,2.1,2.7,3.8c-0.7-1.6-2-2.9-3.7-3.6c0.1,0.1,0.2,0.2,0.2,0.3c-0.4-0.2-0.8-0.3-1.2-0.4
	c0,0.1,0.1,0.2,0.2,0.3c-1.5-0.5-2.7-1.8-2.9-3.4c0,0,0.4-1.6-1.6-1.7C46.9,79.7,46.7,79.5,46.7,78z"/>
<path class="st5" d="M49.7,104.4c0.1,0,0.2,0.1,0.3,0.2c0-0.8-0.2-1.6-0.6-2.3c0.1,0,0.2,0,0.3,0c-0.3-0.5-0.6-1-0.9-1.4
	c-1.9-2.8,2-5.8,2-6v0.5c0.5-0.6,1-1.2,1.4-1.9c0.1,0.2,0.2,0.4,0.2,0.6c0,0,1-1.1,0.8-2c-0.5-0.9-1.5-1.5-2.5-1.6
	c1.4-0.2,2.9,0.3,3.8,1.4c1.6,0.4,3.1,1.4,4,2.8c1.1,1.3,0,2.4,0.9,3c0,0.1-0.3,0.2-0.7-0.3c0-0.1,0-0.7,0-0.8
	c0.1-0.6-0.3-1.4-1.9-2.5c-0.8-0.6-1.6-0.9-2.5-1.1c-0.6,1.1-1.4,2-2.5,2.6c0.1-0.3,0.1-0.4,0.1-0.4c-0.6,0.2-1.1,0.7-1.4,1.2
	c0-0.2,0-0.3,0-0.5c-0.7,0.9-1.1,2-1.1,3.2c0.1,0.7,0.6,1.1,1.3,1.9c1.3-0.2,5-0.5,4.1,4.7c0,0.7,2.7,1,4.9,1.3
	c0.9,0.2,1,0.6,2.2,0.6c-0.1,0.2,0.2,0.6-2.4,0.3c-0.5,0.2-0.6,0.7-0.7,0.7s-0.3-0.8-0.6-0.8s-0.9,1-1.2,1.1c0-0.4-0.1-0.8-0.2-1.2
	c-0.3,0.3-0.6,0.6-1,0.7c0-0.4-0.1-0.7-0.3-1c-0.3-0.3-0.8-0.2-0.9-0.4c-0.3-0.7,0.4-2.2-0.2-3.1c-0.6-0.9-1.4-0.9-2.9-0.9
	c0.3,1.6-1.6,4.6-4.2,5.7C48.7,107.7,49.5,106.1,49.7,104.4z"/>
<path class="st5" d="M55.8,78.8c0,0-0.1,0.5,0.7,1.7c0.3,0.5,0.2,3.1,0.4,4c0.4,0.6,0.7,1.2,1,1.9c0,0,0.3,0.3,0.4,0.2
	c-0.1-0.2-0.1-0.5,0-0.7c0.1,0.1,0.2,0.2,0.3,0.2c0-0.1-0.1-0.3-0.1-0.4c0.1,0.1,0.1,0.2,0.2,0.3c-0.1-0.3-0.1-0.5-0.1-0.8
	c0-0.9-0.9-5.3-0.9-5.3s-0.2-1-0.8-1C56.4,78.8,55.8,78.8,55.8,78.8z"/>
<path class="st5" d="M43.9,102.6c-0.3,0.1-0.7,0.1-1,0.1c0.1,0,0.1-0.1,0.2-0.2c-0.6,0.1-1.2-0.2-1.6-0.7c0.1,0,0.2,0,0.3,0
	c-1.3-1.2-0.8-4.9,0.3-7.8c-1.6,2.2-2.3,6.1-1.5,7.9c0.2,1,1.2,1.7,2.2,1.5c0.6,0,1.1,0,1.7-0.1C44.2,103.1,44,102.8,43.9,102.6z"/>
<path class="st5" d="M44.4,108.4c-0.8,1.6,0.2,4,0.3,5.3c0.1,0.8,0,1.4,0.3,1.6c-0.4-0.1-0.6,0.1-0.9-0.3c-0.3-0.4-0.3-1.1-0.4-1.2
	s-0.7-0.1-0.9-0.2c0-0.4,0.9-1,0.9-1c-0.4,0-0.7,0-1.1,0c0-0.4,0.8-1.2,0.8-1.2s0-0.1-1.2-0.1c0.2-0.4,0.6-0.6,1-0.8
	c-0.1-0.4-0.1-0.8-0.1-1.2C43.5,109.1,43.9,108.9,44.4,108.4z"/>
<path class="st5" d="M51.2,78.2c0.3,0.1,0.5,0.1,0.8,0.1c-0.8-0.1-0.9-0.8-0.6-1c-0.5,0.1-0.8,0.4-0.8,0.7s-0.2,0.4,0.5,0.7
	c0.5,0.2,1.9,0.7,2.1-0.3C52.6,78.8,51.7,78.7,51.2,78.2z"/>
<path class="st5" d="M45.9,77.2l-0.1,0.4c-0.4-0.1-0.9-0.2-1.2-0.4c-0.5-0.4-1.2-1.3-1.1-1.4c0.1-0.1,0.2-0.1,0.4-0.2
	C44.2,77,45.9,77.2,45.9,77.2z"/>
<path class="st6" d="M59.8,98.1c0.2,0.5,0.7,0.8,1.2,0.6c0,0,0,0.1,0.1,0c-1.2,0.6-1.6-0.3-1.6-0.5C59.6,98.2,59.7,98.2,59.8,98.1z"
	/>
<path class="st5" d="M52.3,66.4c0.4,0.2,1,0.8,0.5,1S52.3,66.9,52.3,66.4z"/>
<path class="st5" d="M53.3,66.7c0.4,0.2,1,0.8,0.5,1S53.3,67.2,53.3,66.7z"/>
<path class="st5" d="M53.4,68.1c0.4,0.2,1,0.8,0.5,1C53.5,69.3,53.4,68.6,53.4,68.1z"/>
<path class="st5" d="M54.5,69.1c0.4,0.2,1,0.8,0.5,1S54.5,69.6,54.5,69.1z"/>
<path class="st5" d="M55.2,71.6c0.4,0.2,1,0.8,0.5,1S55.2,72.1,55.2,71.6z"/>
<path class="st5" d="M54.5,70.4c0.4,0.2,1,0.8,0.5,1S54.5,70.9,54.5,70.4z"/>
<path d="M72.1,116.6c-0.1,0-0.1-0.1-0.2-0.1c0,0,0-0.1,0-0.1l0.7-0.1c0,0.1,0.2,2,0.3,2.7c0.1,0,0.1,0.1,0.2,0.1c0,0,0,0.1,0,0.1
	l-0.7,0.1C72.4,118.9,72.2,117.2,72.1,116.6z"/>
<path d="M74.6,117.6c0-0.1,0-0.3,0-0.4c0,0.3-0.1,1.1-0.2,1.2h-0.3c-0.1-0.1-0.5-1.1-0.5-1.1c0,0.1,0,0.2,0.1,0.4l0.2,1.3l-0.6,0.2
	v-0.1c0.1,0,0.1-0.1,0.2-0.1c0-0.1-0.3-1.9-0.4-2.5c-0.1,0-0.1-0.1-0.2-0.1v-0.1l0.7-0.1l0.6,1.3l0.2-1.4l0.7-0.1c0,0,0,0.1,0,0.1
	c-0.1,0-0.1,0.1-0.2,0.1c0,0,0.3,2.4,0.4,2.5c0.1,0,0.1,0,0.2,0.1v0.1l-0.6,0.1L74.6,117.6z"/>
<path d="M71.2,118c0-0.1,0-0.3,0-0.4c0,0.3-0.2,1.1-0.3,1.2h-0.3l-0.4-1.1c0,0.1,0,0.2,0,0.4c0,0,0.1,1.2,0.1,1.3h-0.6
	c0,0,0-0.1,0-0.1c0.1,0,0.1,0,0.2-0.1c0-0.1-0.1-1.9-0.1-2.5c-0.1,0-0.1-0.1-0.2-0.1v-0.1h0.7c0.1,0.2,0.5,1.4,0.5,1.4l0.3-1.4h0.7
	c0,0,0,0.1,0,0.1c-0.1,0-0.1,0-0.2,0.1c0,0,0.1,2.4,0.2,2.5c0.1,0,0.1,0.1,0.2,0.1v0.1h-0.7L71.2,118z"/>
<path d="M66.9,118.1c0-0.2,0-0.3,0-0.4c-0.1,0.2-0.3,1-0.4,1.2h-0.3l-0.3-1.2c0,0,0,0.2,0,0.4c0,0-0.1,1.2-0.1,1.3h-0.6
	c0,0,0-0.1,0-0.1c0.1,0,0.1,0,0.2-0.1c0-0.1,0.1-1.9,0.1-2.5c-0.1,0-0.1-0.1-0.2-0.1c0,0,0-0.1,0-0.1h0.7c0,0.2,0.4,1.4,0.4,1.4
	l0.5-1.4h0.7v0.1c-0.1,0-0.1,0-0.2,0.1c0,0-0.1,2.4-0.1,2.5c0,0,0.1,0.1,0.2,0.1c0,0,0,0.1,0,0.1h-0.7L66.9,118.1z"/>
<path d="M63.7,116.5c0-0.1-0.1-0.1-0.2-0.1c0,0,0-0.1,0-0.1l0.7,0.1c0,0.1-0.3,2-0.3,2.7c0,0,0.1,0.1,0.2,0.1c0,0,0,0.1,0,0.1
	l-0.6-0.1C63.4,118.8,63.6,117.1,63.7,116.5z"/>
<path d="M57.1,117.7l-0.6-0.2l0.1-0.1c0.1,0,0.1,0,0.2,0l0.9-2.3c0-0.1-0.1-0.1-0.1-0.1c0,0,0-0.1,0-0.1l0.6,0.2l-0.4,1.1l1-0.9
	l0.5,0.2l-0.1,0.1c-0.1,0-0.1,0-0.2,0c-0.3,0.2-0.6,0.5-0.9,0.8c0,0.4,0.1,1.4,0.1,1.6c0,0.1,0.1,0.1,0.1,0.1c0,0,0,0.1,0,0.1
	l-0.6-0.2c0-0.3-0.1-1.2-0.1-1.5L57.1,117.7z"/>
<path d="M60.4,115.6c0,0.2,0,2.7,0,2.8c0,0.1,0.1,0.1,0.1,0.1v0.1l-0.6-0.1v-0.8l-0.6-0.2l-0.3,0.7l-0.5-0.1c0,0,0-0.1,0-0.1
	c0.1,0,0.1,0,0.2,0c0-0.1,1.2-2.4,1.3-2.5L60.4,115.6z M59.5,117.2l0.4,0.1c0-0.5,0-1,0-1L59.5,117.2z"/>
<path d="M62.4,117.6c0-0.1,0-0.2,0.1-0.4c-0.1,0.2-0.5,1-0.5,1.1l-0.3-0.1l-0.1-1.2c0,0,0,0.2-0.1,0.4l-0.2,1.3l-0.6-0.1l0-0.1
	c0.1,0,0.1,0,0.2-0.1c0-0.1,0.3-1.9,0.4-2.5c0-0.1-0.1-0.1-0.2-0.1v-0.1l0.7,0.1c0,0.2,0.2,1.4,0.2,1.4l0.6-1.3l0.7,0.1
	c0,0,0,0.1,0,0.1c-0.1,0-0.1,0-0.2,0.1c0,0-0.4,2.4-0.4,2.5c0,0,0.1,0.1,0.2,0.1v0.1l-0.7-0.1L62.4,117.6z"/>
<path d="M68.5,118.1v1h0.9c0,0.1-0.1,0.3-0.1,0.4h-1.4c0,0,0-0.1,0-0.1c0.1,0,0.1,0,0.2-0.1v-2.5c-0.1,0-0.1-0.1-0.2-0.1
	c0,0,0-0.1,0-0.1h1.5c0,0.1-0.1,0.3-0.1,0.4h-0.7v0.8h0.7c0,0.1-0.1,0.3-0.1,0.4L68.5,118.1z"/>
<path d="M76.9,115.7c-0.1,0-0.1,0-0.2,0l-0.1-0.1l0.6-0.2c0,0.1,0.5,2,0.7,2.6c0.1,0,0.1,0,0.2,0c0,0,0,0.1,0.1,0.1l-0.6,0.2
	C77.6,118,77.1,116.3,76.9,115.7z"/>
<path d="M75.3,116.1c-0.1,0-0.1,0-0.2-0.1v-0.1l0.8-0.2c0.4-0.1,0.8,0,1,0.8s-0.2,1-0.6,1.1h-0.1c0,0,0.2,0.9,0.2,1l-0.6,0.1
	c0,0,0-0.1,0-0.1c0.1,0,0.1-0.1,0.2-0.1L75.3,116.1z M75.8,116.2l0.2,1.1h0.1c0.2,0,0.3-0.2,0.2-0.6s-0.3-0.6-0.5-0.5L75.8,116.2z"
	/>
<path d="M79.3,116.6c-0.1-0.2-0.1-0.3-0.2-0.5l-0.4-1.2l0.6-0.2c0,0,0,0.1,0,0.1c-0.1,0-0.1,0.1-0.1,0.2c0,0,0.6,1.8,0.8,2.3
	c0.1,0,0.1,0,0.2,0l0.1,0.1l-0.6,0.2l-1.3-1.5c0.1,0.1,0.1,0.3,0.2,0.4c0,0,0.4,1.2,0.5,1.3l-0.6,0.2c0,0,0-0.1,0-0.1
	c0.1,0,0.1-0.1,0.1-0.1l-0.8-2.3c-0.1,0-0.1,0-0.2,0c0,0-0.1-0.1-0.1-0.1l0.7-0.2L79.3,116.6z"/>
<path d="M92.1,116.1c-0.4,0.6-2,0.5-2.5,0.1c-0.8-0.7-1.2-1.6-1.1-2.7c0.2-2.3-1.2-4-4-4.4c-2.8-0.4-6.3,0.5-6.7,2.4
	c-0.2,0.8,0.8,0.9,1.1,2.3c-3.4,1.2-6.9,1.8-10.5,1.7c-3.6,0.1-7.1-0.4-10.5-1.7c0.3-1.4,1.3-1.5,1.1-2.3c-0.5-1.9-4-2.9-6.7-2.4
	c-2.7,0.5-4.2,2.1-4,4.4c0.1,1-0.3,2-1,2.7c-0.5,0.4-2.1,0.5-2.5-0.1c-0.2,0.1,0.1,0.6,0.5,0.8c1,0.8,1.9,1.8,2.5,2.9
	c3,0.8,2.8-1.8,2.8-2.8c0-1.7,0.2-2.7,0.8-3s1.1-0.3,2.2,0.1c-0.1,0.6-0.3,1.2-0.5,1.8v0.1v0.1c1.6,2.4,7.6,4.4,15.4,4.4l0,0
	c7.9,0,13.8-2,15.4-4.4v-0.1V116c-0.2-0.6-0.4-1.2-0.5-1.8c1-0.4,1.7-0.4,2.2-0.1s0.8,1.3,0.8,3c0,1-0.2,3.6,2.8,2.8
	c0.6-1.1,1.4-2.1,2.5-2.9C92,116.7,92.2,116.2,92.1,116.1z M78.7,112.4c1,0,1.9-0.4,2.5-1.1c0.3-0.4,0.8-0.6,1.2-0.5
	c0.2,0.1,0.2,0.2,0.2,0.3c0,0.1-0.3,0.8-2.1,1.9c-0.4,0.3-0.9,0.5-1.3,0.7C79.1,113.2,78.9,112.8,78.7,112.4z M57.5,113.6
	c-0.5-0.2-0.9-0.4-1.3-0.7c-1.8-1-2.1-1.7-2.2-1.9c0-0.2,0-0.2,0.2-0.3c0.5,0,0.9,0.2,1.2,0.5c0.7,0.7,1.6,1.1,2.6,1.1
	C57.8,112.8,57.6,113.2,57.5,113.6z M51,113.6c-0.7,0.5-1,1.5-1,3.4c0,1.2-0.2,1.8-0.5,2.1c-0.4,0.3-1,0.4-1.5,0.3
	c-0.5-0.9-1.1-1.7-1.9-2.4c0.5,0,1-0.2,1.4-0.5c0.9-0.8,1.4-1.9,1.3-3.1c-0.3-3,2.4-3.8,3.6-3.9c2.3-0.4,4.8,0.2,5.8,1.3
	c0.6,0.7,0.4,0.9,0.3,1c-1,0.2-2-0.2-2.6-0.9c-0.5-0.5-1.1-0.7-1.8-0.6c-0.2,0.1-0.4,0.3-0.4,0.5c0,0.1,0,0.1,0,0.2
	c0,0.8,0,1.7-0.1,2.5C52.8,113.3,51.8,113.2,51,113.6L51,113.6z M83.4,116c-1.9,2.2-7.8,4-15,4s-13.1-1.8-15-4
	c0.5-1.3,0.7-2.7,0.7-4.1c0.6,0.6,1.2,1,1.9,1.4c2.9,1.7,7,2.6,12.4,2.6l0,0c5.4,0,9.6-0.9,12.4-2.6c0.7-0.4,1.3-0.9,1.9-1.4
	C82.6,113.3,82.9,114.7,83.4,116L83.4,116z M88.8,119.5c-0.5,0.1-1.1,0-1.5-0.3c-0.4-0.3-0.5-1-0.5-2.1c0-1.9-0.3-3-1-3.4
	c-0.8-0.4-1.7-0.4-2.5,0c-0.1-0.8-0.1-1.7-0.1-2.5c0-0.1,0-0.1,0-0.2c0-0.2-0.2-0.5-0.4-0.5c-0.7-0.2-1.3,0.1-1.8,0.6
	c-0.6,0.7-1.6,1.1-2.6,0.9c-0.1-0.1-0.3-0.3,0.3-1c1-1.1,3.5-1.7,5.8-1.3c1.2,0.2,3.9,1,3.6,3.9c-0.1,1.2,0.4,2.3,1.3,3.1
	c0.4,0.3,0.9,0.5,1.4,0.5C89.9,117.8,89.2,118.6,88.8,119.5L88.8,119.5z"/>
<path class="st1" d="M89.7,114.6c0-0.2,0-0.5-0.4-0.5c0.1-0.2,0-0.4-0.1-0.5c0,0-0.1,0-0.1,0c-0.1-0.4-0.8-0.4-0.8-0.4
	s-0.7,0-0.5,0.5c-0.1,0.1-0.1,0.2-0.2,0.3c0,0.3,0,0.6,0.2,0.8c0.1,0.2,0.2,0.5,0.4,0.7c0.2,0.1,0.4,0.2,0.6,0.2
	c0.1,0.2,0.3,0.4,0.5,0.4c0.2,0,0.4-0.1,0.6-0.2C89.8,115.9,90.6,114.6,89.7,114.6z"/>
<path d="M85.6,101.7c0.4-0.9,0.9-1.2,1.2-2.1c0.6-2.1-1.9-3.1-3.7-4.4l0,0c0.6,0,1.5-1.5,3.1-1.7c-2,0-2.8,0.9-3.8,1.2
	c-0.4-0.3-0.7-0.7-0.9-1.2c0.5-0.3,1-0.4,1.6-0.5c0.3-1,1.1-1.9,2.1-2.4c-1.1,0.2-2.1,0.8-2.7,1.8c-2,0.4-3.6,1.7-4.5,3.5
	c0.8-0.9,1.7-1.7,2.8-2.1c1,1.8,3.4,2.6,4.9,3.9c-1.2-0.1-4.6,0.1-5.9,1.9c0.1-0.1,0.2-0.2,0.3-0.3c0.8,0.8,1.5,2.9,2.5,2.9
	c-0.9-1-0.4-2.2-1.3-3.5c0.3-0.1,0.6-0.2,0.9-0.2l0,0c0.3,0.5,0.2,2.3,1.3,3c-0.2-1-0.3-1.9-0.4-2.9
	C84.2,100.6,85.5,100.9,85.6,101.7z"/>
<path d="M89.9,110c0.1,0.9,0.1,1.8-0.1,2.7c-0.2,0.6-1.3,0.5-1.3,0.5s0.9,0.4,1.2,0.1c0,0.3-0.7,0.3-0.7,0.3c0.3,0.2,0.7,0.3,1,0.1
	c0,0.2-0.2,0.4-0.4,0.4c0.3,0.1,0.6,0,0.8-0.2c0.3,0.3-0.4,0.8-0.4,0.8s1-0.2,1.2-0.6c0.2-0.7,0.2-1.4,0.1-2.1
	c-0.1,0.5-0.2,1.1-0.5,1.5c0.1-0.6,0.1-1.2,0-1.8c-0.1,0.5-0.3,1-0.6,1.5c0.2-1,0.3-1.9,0.3-2.9c0.2,0.1,0.4,0.2,0.6,0.4
	c-0.1-1-7.3-4.8-5.6-8.6c-0.2,0.3-0.4,0.5-0.5,0.8c-0.9-0.2-1.8,0-2.6,0.5c-1.3,1.3-0.3,3.3-0.6,3.6c-0.1,0-0.7,0.2-0.8,0.3
	c-0.2,0.3-0.2,0.7-0.2,1c-0.6-0.4-0.7-0.8-0.9-0.8c-0.2,0-0.4,0.6-0.4,1.1c-0.6-0.2-0.8-1.2-1-1.2s-0.7,1.1-0.7,1.1
	c-0.2-0.2-0.4-0.5-0.6-0.8c-0.3,0-0.7,0-1,0.1c-0.8,0.1-1.1,0-1.3-0.3c-0.4-0.4,0.1-0.8,0.2-1c0.4-0.3,0.9-0.3,1.3,0
	c0.4,0,0.9-0.1,1.3-0.2c-0.4,0-0.9,0-1.3-0.1c-0.2-0.3-0.7-0.5-1-0.3c0,0,0,0-0.1,0c-0.4,0.2-0.6,0.5-0.9,0.8c-0.2-1,1.5-1.5,1.8-1
	c0.6,0.2,1.1,0.2,1.7,0c-0.5,0.1-1.1,0-1.6-0.3c-0.4-0.3-1-0.3-1.5,0c0.7-1,1.5-0.3,1.7-0.1c0.8,0.2,1.6,0.1,2.4-0.2
	c0.3-0.1,0.5-0.3,0.5-0.7c-0.1-1.3,0-2.6,0.1-3.8c0-0.2,0.1-0.5,0.2-0.7c-0.7,0.6-0.8,3.4-0.8,4.3c0,0.2-0.2,0.4-0.3,0.5
	c-0.6,0.3-1.2,0.4-1.9,0.3c-0.7-0.7-2.2-0.6-2.2,0.7c-0.3,0.2-0.4,0.4-0.5,0.7l0,0c-0.1,0.3,0,0.6,0.2,0.9c0,0.2,0.1,0.3,0.2,0.3
	c-0.3,0.3-0.4,0.8-0.2,1.2c0.2-0.4,0.6-0.8,0.7-0.7c0.7,0.4,1.3-0.1,2.1,0c0.3,0.5,0.7,0.8,1.2,1c0-0.4,0.1-0.8,0.3-1.1
	c0.4,0.5,0.9,1,1.5,1.3c-0.1-0.4,0-0.9,0.1-1.3c0.4,0.4,0.8,0.7,1.3,1c-0.2-0.4-0.1-0.9,0.1-1.3c0.3-0.2,0.6-0.3,0.9-0.4
	c0.4-0.1-0.4-2.7,0.3-3.5c0.6-0.5,1.4-0.7,2.2-0.5c-0.1,0.6,0,1.3,0.3,1.9C86.3,107.6,89.8,109.6,89.9,110z"/>
<path d="M93.2,76c-0.4,0.9-1.3,1.5-2.2,1.6c0.2,0.5,0.8,0.4,1.2,0.4l0.2-0.1c0.3,1.4,0.2,2.9-0.3,4.3c-1.5,0.1-1.7,1.1-3.8,0.8
	c2,1,2.4,0,3.5,0c-0.3,0.6-0.6,1.2-1,1.7c-2-0.1-3-1.6-4.8-1.6c1.9,0.6,1.5,2.1,3.9,2.6l0.1-0.1c-0.4,0.3-0.7,0.7-1.1,1.1
	c-0.3-0.8-0.9-1.4-1.6-1.8c0.4,0.5,0.8,1.1,1,1.7c-1.1-0.8-2-2.5-3.2-2c1.2,0.2,2,2.5,3.4,3.1c0,0.4,0,0.8,0,1.2
	c-1.3-0.7-2.2-2.3-4.1-2.2c1.7,0.4,2.4,2.4,4,3.2c0,0.2,0,0.3-0.1,0.5c-1.7,0-2.6-1.3-4.3,0.3c1.5-0.8,2.9,0.4,4.2,0.2
	c0,0.1,0.2,0.3,0.4,0.6c-1.6,0.2-2.5,1.7-4.2,1.6c1.7,0.7,3.5-0.7,4.8-0.7l0.5,0.8c-1.2,0.5-2.5,1.6-4.8,2c2.5,0.6,4.1-0.8,5.2-1.2
	c-0.1-0.3-0.2-0.5-0.3-0.8l0,0c-0.2-0.8-0.5-1.5-0.9-2.3c0.3-1,0.3-2,0.3-3c0.1-0.8,0.7-1.1,1.5-1.9c1.4-1.4,3-4,2.2-8.2l0,0
	c0.6-0.5,1-1.1,1.2-1.8c-0.5-0.3-1.2-0.4-1.8-0.3C93.3,75.6,93.2,76,93.2,76z"/>
<path d="M85.8,78.2c-0.6,0.1-1.2,0.1-1.9,0C84.5,78.8,85.8,78.2,85.8,78.2z"/>
<path d="M83.7,77.6c0.4,0.4,1.1,0.4,1.5,0.1C84.7,77.7,84.2,77.7,83.7,77.6z"/>
<path d="M86.7,74.9c1.4-0.2,2.8,0,4.1,0.7c-0.1,0-0.2,0.1-0.3,0.2c0.4-0.1,0.7-0.2,1.1-0.2h0.1c0,0-0.1-0.1-0.4-0.2
	c0.1-0.3,0.3-1,0.1-1.1c-0.5,0.3-0.8,0.5-1.1,0.7C89.2,74.4,87.9,74.4,86.7,74.9z"/>
<path d="M86.2,75c-0.7,0.2-1,0.4-1.1,0.6c-0.5,0.1-1,0.3-1.5,0.6c0.7-0.1,1.2-0.2,1.5-0.2c0.2,0.3,0.4,0.4,0.7,0.5
	c0.4,0.7,1.2,0.9,1.9,0.5c0.2-0.1,0.3-0.2,0.4-0.4l0,0c0.5,0.3,0.3,1-1.1,1.3c2.8,0.1,2.1-1.3,1.5-1.7c0.3-0.6-0.2-1.5-1.9-0.8
	c1.3-0.2,1.4,0.4,1.3,0.7c-0.6-0.3-1.2-0.6-1.8,0C85.6,76.5,84.9,75.5,86.2,75z M86.5,76.3c0,0,0,0.1,0,0.2c0,0.1,0.1,0.3,0.2,0.3
	s0.3-0.1,0.3-0.2c0,0,0-0.1,0-0.1c0-0.1-0.1-0.2-0.2-0.3c0.2-0.1,0.5,0,1,0.4c-1,0.5-1.5,0.4-1.6-0.1C86.3,76.4,86.4,76.3,86.5,76.3
	L86.5,76.3z"/>
<path d="M86.2,78.3c0.1,0,0.3,0,0.4,0.1c0-0.6-0.4-1.3-1.9-1.2C85.9,77.2,86.2,77.7,86.2,78.3z"/>
<path d="M75.2,99.3c0.1,0,0.1-0.1,0.2-0.2c0.1,0.1,0.3,0.1,0.5,0.1h0.3c0.1,0.3,0.3,0.4,0.6,0.5c-0.1-0.2-0.2-0.4-0.2-0.6
	c0.3-0.1,0.5-0.3,0.6-0.6c-1,0.7-2,0.1-1.2-0.7c0.2-0.5,0.2-1,0.1-1.6c-0.1,0.5-0.3,1-0.5,1.4c-0.6,0.5-0.6,1.1-0.3,1.3
	c-0.5-0.1-0.8-0.6-0.7-1.1c0-0.2,0.2-0.4,0.4-0.6c0.3-0.4,0.5-1,0.3-1.5c-0.1,1-0.9,1.4-1.2,1.9l0,0c-1-0.7,0-1.2,0.2-1.5
	c0.4-0.8,0.2-1.4,1.4-2.4c0.4-0.3,0.9-0.8,1.4-1.3c0.6,0.5,1.3,0.8,2.1,1c-0.7-0.4-1.2-0.9-1.5-1.6c0.3-0.3,0.6-0.7,0.9-1
	c0.3,0.7,1,1.2,1.8,1.2c-0.6-0.4-1.1-1-1.3-1.8l0.6-0.7c0.3,0.4,1.2,1.4,2.1,1.2c-0.7-0.5-1.2-1.1-1.6-1.8l0.5-0.6
	c0.4-1.9,1.7-3.5,3.6-4.2c-3.3,0.3-4,3.9-4,3.9L79.4,89c-0.2-0.8-0.1-1.7,0.3-2.5c-0.3,0,0,0-0.5,0c0.4-0.8,0.9-1.5,1.5-2.1
	c-0.2,0.1-0.4,0.1-0.5,0c0-1.2,0.1-2.4,0.3-3.6c0.2-0.8,0.5-1.5,1-2.1c0.3-0.3,0.4-0.6,0.4-1c0-0.3-0.2-0.5-0.5-0.6
	c0-0.2,0-0.5,0-0.8c0.2-0.6-0.1-1.2-0.7-1.4c-0.1,0-0.1,0-0.2,0c0.7-2,3-1.5,3.4,0.7c1-2.6-0.6-3.2-1.2-3.2c0.4-0.2,2.3-0.6,3.2,0.8
	c0.2-1.1-0.6-2.2-1.7-2.4c-0.2,0-0.3,0-0.5,0c0.2-0.1,0.5-0.1,0.7-0.1c1,0,1.9,0.3,2.6,1c-0.4-1.1-1.4-1.9-2.5-2.1
	c0.2,0,0.3,0,0.5,0c1.1,0,2.2,0.3,3.1,1c-0.3-1.2-1.3-2.1-2.6-2.2c1-0.2,2.1,0,3,0.6c-0.4-0.9-1.3-1.6-2.3-1.8c1-0.3,2.1,0,2.9,0.6
	c-0.5-1.1-1.6-1.9-2.8-2c1.3-0.3,2.7,0.1,3.7,0.9c-3.3-5.6-10.3-1.5-10.8,8.3C79.1,75,79,75.2,79,75.4c-1.4,0.2-1.3,1.2-1.2,1.4
	c-1,0.7-0.4,2.3-0.4,2.3l0.1,1.9c0.2-0.7,0.3-1.3,0.3-2c0-0.7-0.5-1.3,0.4-2.2c-0.1-0.5,0-1.3,1.2-1.1c0-0.1,0-0.6,0.3-0.8
	c0.3-0.1,0.6-0.2,0.9-0.1c0.5,0.2,0.8,0.9,0.6,1.3c0.1,0.2,0.2,0.4,0.1,0.6c-0.1-0.2-0.2-0.3-0.4-0.3c-0.3,0.1-0.7,0-1-0.1
	c0,0,0.5,0.5,0.3,1c0.1,0.1,0.2,0.3,0.2,0.5c-0.1-0.2-0.3-0.3-0.5-0.3c-0.2,0.1-0.5,0.1-0.7,0c0.4,0.4,0.4,0.7,0.3,0.8
	s0.2,0.1,0.2,0.4c-0.2-0.1-0.2-0.1-0.4-0.2c-0.1,0.2-0.4,0.2-0.6,0.2c0,0.1,0.1,0.1,0.1,0.2v2l0.3-1.8c0.2,0.2,0.4,0.4,0.4,0.6
	l-0.2,1.5c0,0-0.4,0.2-0.6,0c0,0.6,0.9,0.3,0.9,0.3l0.2-1.7c0.4-0.1,0.7-0.3,0.9-0.6c0,0.4-0.1,0.7-0.4,1c-0.2,0.4-0.3,0.8-0.3,1.2
	c-0.7,1.3-2,1.3-2.3,2.4c0.9-0.9,1.5-0.5,2.1-1.2c0,0.2,0,0.3-0.1,0.5c-0.9,0.7-1.3,2.2-2.3,2.9c1.2-0.2,1.6-1.2,2.1-1.7
	c0,0,0,0.1,0,0.1c-0.5,1.8-1.1,2.2-1.4,3.2c-0.5,0-1-0.2-1.2-1.1c0-1.6,0.2-3.1,0.4-4.6c-0.5,1-1.3,5.3-0.9,5.8
	c0.2,0.2,1.6,1.6,2.3,2.2c-1,1.4-2.2,2.6-3.5,3.7c-0.9,0.4-1.2,2.4-1.5,2.6c-0.9,0.5-1.1,1.6,0.1,2.1C73.9,98.9,74.5,99.4,75.2,99.3
	z M79.6,74.7c0.1-2.8,0.9-5.5,2.5-7.9c1.9-2.4,4.6-3.5,6.4-1.7c-1.4-0.4-2.9,0-3.9,1c1.3-0.7,2.9-0.3,3.3,0.4
	c-0.3-0.1-2.4-0.6-3.5,0.8c0,0,1.8-0.7,2.6,0.5c-0.4-0.1-2.2-0.4-3.2,0.6c1.2-0.4,2.5,0,3.2,0.9c-0.7-0.3-2.9-1-4,0.1
	c0,0,1.8-0.3,2.3,0.7c-1.1-0.4-2.3-0.1-3,0.9c0.9-0.6,2.2-0.3,2.8,0.6c0,0,0,0.1,0.1,0.1c-0.4-0.2-0.8-0.3-1.2-0.3
	c-1,0-2,0.4-2.6,1.1c0.9-0.6,2.3-0.3,2.4,1.5c-0.5-0.9-1.7-1.2-2.6-0.7c-0.4,0.2-0.6,0.5-0.8,0.9c0,0.1-0.1,0.2-0.1,0.2
	c0,0,0.3-5.1,2.6-8.1c-2.5,2.3-3.1,8.2-3.1,8.2L79.6,74.7z"/>
<path d="M77.2,98.3c0.2,0,0.3,0,0.5-0.1c0.1,0.2,0.4,0.3,0.6,0.2c-0.2-0.1-0.3-0.2-0.3-0.4c0.4-0.4,0.4-1,0.1-1.4
	c0.1,0.7-0.3,1.3-0.7,1.2s-0.1-1-0.6-1.3C77,97.2,76.2,98,77.2,98.3z"/>
<path d="M90,78c0.1,0.7-0.3,1.4-0.9,1.7c-0.7-0.1-1.4,0.4-1.4,1.1c0,0.1,0,0.1,0,0.2c0.2-0.7,0.9-1,1.5-0.8c0.6-0.3,1-0.9,1-1.6
	c0.2,0.1,0.3,0.4,0.3,0.6c0.5-1.1,0-2.4-1-3c0.2,0.6,0.8,1.1,0.7,1.9C90.2,78,90.1,77.9,90,78z"/>
<path d="M91.1,76.6c0.6,0,1.1-0.2,1.4-0.6c-0.6-0.1-1.3-0.1-1.9,0.2C90.6,76.2,90.4,76.6,91.1,76.6z"/>
<path d="M94.8,111.7c-0.2-0.5-0.6-0.9-1.1-1.1c0.1-0.5,0-0.9-0.3-1.3c0,0.4-0.1,0.8-0.2,1.2c-0.1,0.4,0.6,0.2,1,0.8
	c-0.3-0.1-0.7-0.1-1.1-0.1c-0.1,0.1-0.2,0.2-0.1,0.4c0,0.1,0.1,0.1,0.1,0.1c0.3,0.1,0.6,0.4,0.7,0.7c-0.3-0.1-0.6-0.2-0.9-0.2
	c-0.1,0-0.2,0.2-0.2,0.3c0,0,0,0.1,0.1,0.1c0.3,0.2,0.5,0.5,0.8,0.8c-1-0.1-1.1,0.1-1.1,0.2c0,0.2,0,0.5,0,0.8
	c0.1,0.6-1.1,0.8-1.6,0.9c-0.3,0.1-0.7,0.2-1,0.3c-0.3,0.3-1.1,0.2-1-0.2c0.1-0.8,0.5-0.8,0.8-0.8c-0.5-0.3-1,0-1.2,0.8
	c-1,0-0.4-1.4,0.3-1.3c-0.4-0.1-0.8,0-1,0.3c-0.2,0-0.4-0.6,0.4-0.8c-0.2-0.1-0.4-0.1-0.6,0c0-0.1,0.1-0.3,0.4-0.4
	c0.1,0,0.3,0,0.4,0c-0.1,0-0.3,0-0.4,0c-0.3,0-0.6,0.1-0.6,0.4c0,0,0,0.1,0,0.1c-0.2,0.3-0.2,0.7-0.2,1c-0.2,0.2-0.2,0.5-0.2,0.8
	c0.3-0.5,0.6-0.5,0.6-0.5c-0.1,0.3,0,0.6,0.2,0.8c-0.2,0.3-0.1,0.7,0.2,0.9c0-0.2,0-0.5,0.1-0.7c0.2,0,0.3,0,0.5,0
	c0,0.1,0.1,0.3,0.2,0.3c0.1,0.3,0.3,0.6,0.5,0.8c-0.1-0.2-0.1-0.4,0-0.6c0.7,0,1-0.4,1.7-0.5c1-0.2,2-0.6,2-0.9c0-0.3,0-0.7,0.1-1
	c0.4-0.1,0.9-0.1,1.3,0c-0.2-0.5-0.6-0.9-1.1-1.2c0.4,0,0.8,0.1,1.1,0.3c-0.1-0.6-0.4-1.1-0.8-1.4C94.1,111.6,94.5,111.6,94.8,111.7
	z"/>
<path d="M95.7,95c-1.3-2.9-3.2-6.3-2.1-8.3c0.7-1.3,2.2-0.4,2.6-1.2c0.3-0.7-2.6-2.2-4.3,0.9c-0.7,1.6-0.6,3.4,0.4,4.9
	c-0.1-0.4-0.2-0.8-0.3-1.2l0,0c0.3-0.2,0.7-0.2,1.1-0.1l0,0c0.2,0.6,0.4,1.2,0.7,1.8c-0.4,0-0.7,0.1-0.9,0.4c0.5,0,0.9,0.2,1.3,0.5
	c0.4,1,0.9,2,1.3,3.1c-0.4-0.1-0.7-0.1-1.1,0.1c-0.5-1.5-1.2-2.9-2-4.2c2.6,5.5,2.3,8.3,1.8,8.8s-0.8,0.3-1-0.5
	c-0.6-2.2-1.7-4.2-3.1-6c0.3,0.5,0.5,1,0.8,1.5c-0.5,0-3.1,0.2-4.1,1.5c1.1-0.8,3.7-0.7,4.5-0.7c0.2,0.4,0.3,0.8,0.5,1.1
	c-1.1,0-2.6-0.4-4.2,1.2c1.8-1.1,3.5-0.1,4.5-0.2H92c0.3,0.7,0.4,1.2,0.5,1.6l-0.1-0.1c-1.2,0.2-3.7-0.8-5.3,0c2.4,0,4,1.3,5.7,1.1
	c1,0.8,1.7-0.1,2-1c0.5-0.1,1.1,0.1,1.4,0.4c0,0.1,0,0.3-0.1,0.4c-0.1,0.8-0.5,1.5-1.2,1.9c-0.1-0.5-0.3-1-0.7-1.4
	c0,0.6-0.2,1.2-0.4,1.8c-0.4,0-0.8,0-1.1-0.1c0-0.3,0-0.5,0-0.8c-0.2,0.2-0.4,0.5-0.6,0.7c-1.8-1.6-4.3-1-5.6-1.8
	c1,1.7,4.1,1.6,4.9,2.8c-0.1,0.2-0.3,0.5-0.4,0.8c-0.7-0.9-4-1-4.3-2.3c-0.1,1.8,3.2,2.3,4.1,3.2c0,0.2,0,0.5,0,0.7
	c-1.2,0.2-2.4-0.2-3.2-1c0.8,1.2,2.2,2,3.6,2c0.4,0.6,0.9,1,1.5,1.3c-1.5-1.4-1.6-3.7-0.2-5.2c0,0,0,0,0,0
	C98,104.7,97.2,98.3,95.7,95z M95.4,85.6c-0.2,0-0.3,0-0.5,0c0-0.3-0.1-0.5-0.2-0.7c0.3,0,0.6,0.1,0.9,0.2
	C95.8,85.3,95.8,85.5,95.4,85.6z M91.8,89c-0.1-0.8,0-1.6,0.3-2.3l0,0c0.3-0.1,0.6-0.1,0.9,0c0.1-0.3,0-0.7-0.3-0.8c0,0-0.1,0-0.1,0
	c0.4-0.4,0.8-0.7,1.3-0.9c0.2,0.2,0.3,0.5,0.2,0.8L94,85.8c-0.5,0.3-0.9,0.9-1.1,1.5c-0.2,0.5-0.2,1.1-0.1,1.6
	C92.5,88.7,92.1,88.8,91.8,89z M95,99c-0.1-0.7-0.2-1.3-0.3-1.9l0,0c0.4-0.1,0.8-0.1,1.2,0.1c0.2,0.7,0.4,1.4,0.5,2.1
	C96,98.9,95.5,98.8,95,99L95,99z"/>
<path d="M85.4,82.4c0.1-0.1,0.2-0.3,0.1-0.5c0.4,0,0.8,0.1,1.1,0.4c0.3,0,0.6-0.2,0.9-0.3c0.1,0.3,0.3,0.6,0.5,0.7
	c0.1-0.3,0.3-0.6,0.6-0.8c0.1,0.3,0.3,0.5,0.6,0.6c0-1.2,2.2-1.2,1.9-4c-0.3,2.4-1.8,2.5-2.1,3.3c-0.1-0.2-0.2-0.4-0.3-0.7
	c-0.4,0.2-0.6,0.5-0.8,0.9c-0.2-0.2-0.3-0.5-0.3-0.8c-0.3,0.3-0.6,0.6-1,0.6c-1-0.6-2.3-0.7-2.9-0.2c-0.1-0.1-0.4-0.6-0.1-0.9
	c0-0.2,0-0.5,0.1-0.7c0,0.4,0.2,0.7,0.6,0.8c0.3,0.1,0.8-0.2,1.3-0.1c0.4,0.1,1,0.3,1.4,0c0.9-0.7,1-2.3-0.2-2.4
	c0.6,0.4,0.7,1.2,0.3,1.8c0.3-1.1-0.7-1.6-1.2-1.7c-1.1,0.2-2.5,0.7-2.5-1.1c0.3,0,0.7-0.3,0.7-0.6c-0.3,0.2-0.6,0.2-0.9,0.2
	c-0.4-0.3-0.3-0.4,0.1-0.7c-1,0.2-0.9,0.5-0.4,1c0.2,1.6,0.5,1.9,1.5,1.9c0.7,0,1.2-0.5,1.9-0.1c0.4,0.3,0.5,0.9,0.3,1.3l0,0
	c-0.7-0.9-1.8-1.2-2.8-0.9c1,0,1.4,0.1,1.6,0.4c-0.6-0.3-2.6,0.2-2.8-0.8c0.3,0.2,0.4,0.4,1,0.4c-0.5-0.1-0.9-0.5-1.1-1
	c0,0,0,0-0.1,0c-0.5,1.2,0.5,1.6,1.2,1.7c-0.1,0.2-0.1,0.3-0.1,0.5c-0.6,0.4,0.2,1.7,0.4,1.7c0-0.6,0.6-0.9,0.8-0.7
	c0.2,0.1,0.2,0.3,0.1,0.5c0,0,0,0.1-0.1,0.1c-0.3,0.3-1.8,0.2-2.5,0.4c0.1,0.1,0.2,0.2,0.2,0.3c-0.7,0.1-1.3,0.6-1.6,1.2
	c0.6-0.5,1.3-0.8,2.1-1c0-0.1,0-0.2-0.1-0.2C83.7,82.8,84.8,83.1,85.4,82.4z M84.1,80.2c0.4,0,0.7,0,1.1,0.1c-0.2,0-0.3,0.1-0.4,0.2
	C84.5,80.6,84.2,80.5,84.1,80.2C84.1,80.2,84.1,80.2,84.1,80.2z"/>
<path class="st1" d="M47.1,114.6c0-0.2,0-0.5,0.4-0.5c-0.1-0.2,0-0.4,0.1-0.5c0,0,0.1,0,0.1,0c0-0.2,0.3-0.4,0.5-0.4
	c0.1,0,0.2,0,0.3,0c0.1,0,0.5-0.1,0.4,0.5c0.1,0.1,0.1,0.2,0.2,0.3c0.1,0.3,0,0.6-0.3,0.6c0,0.3-0.1,0.6-0.3,0.9
	c-0.2,0.1-0.4,0.2-0.7,0.2c-0.1,0.2-0.3,0.4-0.5,0.3c-0.2,0-0.4-0.1-0.6-0.2C47,115.8,46.2,114.6,47.1,114.6z"/>
<path d="M54.2,92.5c-0.6-0.9-1.6-1.6-2.7-1.7c1,0.5,1.7,1.4,2.1,2.4c0.6,0.1,1.1,0.2,1.6,0.5c-0.2,0.5-0.5,0.9-0.9,1.2
	c-0.9-0.3-1.8-1.2-3.8-1.2c1.6,0.2,2.5,1.7,3.1,1.7l0,0c-1.8,1.3-4.2,2.3-3.6,4.4c0.3,0.9,0.8,1.2,1.2,2.1c0.1-0.8,1.4-1.1,2.3-3
	c0,1-0.2,1.9-0.4,2.9c1.1-0.7,1-2.5,1.3-3l0,0c0.3,0.1,0.6,0.1,0.9,0.2c-0.9,1.3-0.4,2.6-1.3,3.5c1,0,1.8-2.1,2.6-2.9
	c0.1,0.1,0.2,0.2,0.3,0.3c-1.2-1.8-4.6-2-5.9-1.9c1.5-1.3,3.9-2.1,4.9-3.9c1.1,0.5,2.1,1.2,2.8,2.1C57.8,94.2,56.2,92.9,54.2,92.5z"
	/>
<path d="M63,96.1c-0.3-0.2-0.6-2.2-1.5-2.6c-1.3-1.1-2.5-2.4-3.5-3.8c0.7-0.6,2.1-2,2.3-2.2c0.5-0.5-0.4-4.8-0.9-5.8
	c0.2,1.5,0.4,3.1,0.4,4.6c-0.2,0.9-0.6,1.1-1.2,1.1c-0.3-0.9-0.9-1.3-1.3-3.2c0,0,0-0.1,0-0.1c0.5,0.5,1,1.4,2.1,1.7
	c-1-0.7-1.4-2.1-2.3-2.9l-0.1-0.5c0.6,0.7,1.2,0.3,2.1,1.2c-0.2-1-1.6-1.1-2.3-2.3c-0.1-0.4-0.2-0.8-0.3-1.2c-0.3-0.3-0.4-0.6-0.4-1
	c0.2,0.3,0.5,0.5,0.9,0.6l0.1,1.7c0,0,0.8,0.3,0.9-0.3c-0.2,0.2-0.6,0-0.6,0l-0.2-1.5c0.1-0.2,0.2-0.5,0.5-0.6l0.3,1.8v-2
	c0,0,0.1-0.1,0.1-0.2c-0.2,0-0.4,0-0.6-0.2c-0.1,0-0.3,0.1-0.4,0.2c0-0.3,0.1-0.2,0.2-0.4c0.1-0.2-0.1-0.4,0.3-0.8
	c-0.2,0.1-0.5,0.1-0.7,0c-0.2,0.1-0.4,0.2-0.5,0.3c0-0.2,0-0.4,0.2-0.5c-0.2-0.5,0.3-1,0.3-1c-0.3,0.2-0.7,0.2-1,0.1
	c-0.1,0.1-0.3,0.2-0.4,0.3c0-0.2,0-0.4,0.1-0.6c-0.2-0.5,0.1-1.1,0.6-1.3c0.3-0.1,0.6,0,0.9,0.1c0.3,0.3,0.2,0.8,0.3,0.8
	c1.1-0.2,1.3,0.6,1.2,1.1c0.9,0.9,0.4,1.5,0.4,2.2c0,0.7,0.2,1.3,0.3,2l0.1-1.9c0,0,0.7-1.6-0.4-2.3c0.1-0.2,0.2-1.3-1.2-1.4
	c0-0.2-0.1-0.4-0.3-0.6c-0.6-9.8-7.5-13.9-10.9-8.4c1-0.9,2.4-1.2,3.7-0.9c-1.2,0.1-2.3,0.9-2.8,2c0.8-0.6,1.9-0.8,2.9-0.6
	c-1,0.3-1.9,1-2.3,2c0.9-0.6,2-0.8,3-0.6c-1.2,0.1-2.3,1-2.6,2.2c0.9-0.7,2-1,3.1-1c0.2,0,0.3,0,0.5,0c-1.2,0.2-2.1,1-2.5,2.1
	c0.7-0.7,1.6-1,2.6-1c0.2,0,0.5,0,0.7,0.1c-1.1-0.1-2.1,0.7-2.3,1.9c0,0.2,0,0.3,0,0.5c0.8-1.3,2.7-1,3.2-0.8
	c-0.6,0-2.2,0.6-1.2,3.2c0.3-2.2,2.7-2.6,3.4-0.6c-0.6,0.1-1,0.7-0.9,1.2c0,0.1,0,0.1,0.1,0.2c0,0.5,0,0.8,0,0.8
	c-0.3,0.1-0.5,0.3-0.5,0.6c0,0.4,0.1,0.7,0.4,1c0.4,0.7,0.8,1.4,1,2.1c0.2,1.2,0.3,2.4,0.3,3.6c-0.2,0.1-0.3,0.1-0.5,0
	c0.6,0.6,1.1,1.3,1.5,2.1c-0.5,0-0.2,0-0.5,0c0.4,0.8,0.5,1.6,0.3,2.5c-0.4-0.5-0.6-0.8-0.6-0.8s-0.7-3.6-4-3.8
	c1.9,0.7,3.2,2.3,3.6,4.2l0.5,0.6c-0.4,0.7-1,1.3-1.6,1.8c0.9,0.1,1.8-0.9,2.1-1.3c0.2,0.2,0.4,0.5,0.6,0.7
	c-0.2,0.7-0.6,1.3-1.3,1.8c0.8,0,1.5-0.5,1.8-1.2l0.9,1c-0.3,0.7-0.8,1.3-1.5,1.6c0.8-0.2,1.5-0.5,2.1-1c0.4,0.5,0.9,0.9,1.4,1.3
	c1.2,1,1,1.7,1.4,2.4c0.2,0.4,1.2,0.9,0.2,1.5c0,0,0,0,0-0.1c-0.3-0.5-1.1-0.9-1.2-1.9c-0.1,0.5,0,1.1,0.3,1.5
	c0.4,0.3,0.5,0.9,0.2,1.3C62,98.8,61.8,99,61.6,99c0.3-0.3,0.3-0.8-0.3-1.3c-0.2-0.5-0.4-0.9-0.5-1.5c-0.1,0.5-0.1,1.1,0.1,1.6
	c0.8,0.8-0.2,1.4-1.2,0.7c0.1,0.3,0.4,0.4,0.6,0.6c0,0.2-0.1,0.4-0.2,0.6c0.3,0,0.5-0.2,0.6-0.5h0.3c0.2,0,0.3,0,0.5-0.1
	c0,0.1,0.1,0.1,0.2,0.2c0.7,0,1.3-0.5,1.4-1.2C64.1,97.7,63.9,96.6,63,96.1z M52.9,74.2c0.1-1.8,1.5-2.1,2.4-1.5
	c-0.6-0.8-1.6-1.2-2.6-1.1c-0.4,0-0.9,0.1-1.2,0.3c0.5-1,1.8-1.3,2.7-0.8c0,0,0.1,0,0.1,0.1c-0.7-0.9-1.9-1.3-3-0.9
	c0.6-1,2.3-0.7,2.3-0.7c-1.1-1.1-3.3-0.4-4-0.2c0.8-0.9,2.1-1.3,3.2-0.9c-1-1-2.8-0.7-3.2-0.6c0.8-1.2,2.6-0.5,2.6-0.5
	c-1.1-1.3-3.2-0.8-3.5-0.8c0.4-0.7,2.1-1.1,3.3-0.4c-1.1-1-2.6-1.4-4-1c1.8-1.8,4.5-0.7,6.4,1.7c1.6,2.3,2.5,5,2.6,7.8H57
	c0,0-0.6-5.9-3.1-8.2c2.3,3,2.7,8.1,2.7,8.1c0-0.1-0.1-0.2-0.1-0.3c-0.4-1-1.5-1.5-2.5-1.1C53.5,73.5,53.2,73.8,52.9,74.2z"/>
<path d="M44.1,77.6L44.1,77.6c-0.8,4.2,0.8,6.8,2.2,8.2c0.8,0.8,1.4,1.2,1.5,1.9c-0.1,1,0,2,0.3,3c-0.3,0.7-0.6,1.5-0.8,2.3l0,0
	c-0.1,0.3-0.2,0.6-0.3,0.8c1.1,0.4,2.7,1.8,5.2,1.2c-2.4-0.4-3.7-1.5-4.8-2c0.2-0.3,0.4-0.6,0.5-0.8c1.3,0,3.1,1.4,4.8,0.8
	c-1.7,0.1-2.6-1.3-4.2-1.6c0.2-0.3,0.4-0.5,0.4-0.6c1.2,0.1,2.6-1,4.1-0.2c-1.7-1.7-2.6-0.4-4.3-0.3c0-0.1,0-0.3-0.1-0.4
	c1.6-0.7,2.3-2.7,4-3.2c-1.8-0.2-2.8,1.4-4.1,2.2c0-0.4,0-0.8,0-1.2c1.4-0.6,2.3-2.9,3.4-3.1c-1.3-0.5-2.1,1.3-3.2,2
	c0.2-0.6,0.5-1.2,1-1.7c-0.8,0.4-1.4,1-1.7,1.8c-0.4-0.4-0.7-0.7-1.2-1l0.1,0.1c2.4-0.5,2-2,3.9-2.6c-1.8,0-2.9,1.5-4.8,1.6
	c-0.4-0.5-0.7-1.1-1-1.7c1-0.1,1.4,1,3.5,0c-2.1,0.3-2.3-0.7-3.8-0.8c-0.5-1.4-0.6-2.8-0.3-4.3l0.2,0.1c0.4,0.1,1,0.1,1.2-0.4
	c-1,0-1.9-0.7-2.2-1.6c0,0-0.1-0.4,1-0.5c-0.6-0.1-1.1,0-1.7,0.2C43.2,76.4,43.6,77.1,44.1,77.6z"/>
<path d="M51,78.2c0,0,1.2,0.6,1.9,0C52.3,78.2,51.7,78.2,51,78.2z"/>
<path d="M51.6,77.7c0.5,0.3,1.1,0.3,1.5-0.1C52.6,77.7,52.1,77.7,51.6,77.7z"/>
<path d="M45.2,75.6c0.4,0,0.7,0.1,1.1,0.2c-0.1-0.1-0.2-0.1-0.3-0.2c1.3-0.7,2.7-0.9,4.1-0.7c-1.2-0.5-2.5-0.5-3.7,0
	c-0.3-0.2-0.7-0.5-1.1-0.7c-0.2,0.2,0,0.8,0.1,1.1c-0.1,0.1-0.2,0.1-0.3,0.2L45.2,75.6z"/>
<path d="M50.2,78.4c0.1-0.1,0.3-0.1,0.4-0.1c0-0.6,0.4-1,1.4-1.1C50.6,77.1,50.2,77.8,50.2,78.4z"/>
<path d="M58.8,98c0,0.2-0.1,0.3-0.3,0.4c0.2,0.1,0.5,0,0.6-0.2c0.1,0.1,0.3,0.1,0.5,0.1c1-0.4,0.1-1.1,0.5-1.8
	c-0.5,0.3-0.3,1.2-0.6,1.3c-0.3,0.1-0.8-0.5-0.7-1.2C58.5,97,58.5,97.6,58.8,98z"/>
<path d="M46.2,79.2c0-0.2,0.1-0.5,0.3-0.6c0,0.7,0.4,1.3,1,1.6c0.7-0.2,1.4,0.1,1.6,0.8c0,0,0,0,0,0c0-0.7-0.6-1.3-1.3-1.3
	c-0.1,0-0.1,0-0.2,0c-0.6-0.3-1-1-0.9-1.7c-0.1,0-0.2,0-0.3,0.1c-0.1-0.8,0.5-1.3,0.7-1.9C46.2,76.8,45.8,78.1,46.2,79.2z"/>
<path d="M45.8,76.6c0.6,0,0.4-0.5,0.4-0.5c-0.6-0.2-1.2-0.3-1.9-0.2C44.7,76.4,45.2,76.6,45.8,76.6z"/>
<path d="M49.3,113.7c0-0.3-0.2-0.5-0.5-0.5c0,0,0,0-0.1,0c-0.1,0-0.3,0-0.4,0c0.2,0,0.3,0,0.5,0.1c0.2,0.1,0.3,0.2,0.3,0.3
	c-0.2-0.1-0.4-0.1-0.5,0c0.8,0.2,0.6,0.8,0.4,0.8c-0.2-0.3-0.6-0.4-1-0.3c0.7-0.1,1.3,1.3,0.3,1.3c-0.2-0.8-0.7-1.1-1.2-0.8
	c0.3,0,0.7,0.1,0.8,0.8c0.1,0.4-0.8,0.5-1,0.2c-0.3-0.1-0.7-0.2-1-0.3c-0.5-0.1-1.6-0.3-1.6-0.9c0-0.2,0-0.5,0-0.8
	c0-0.1-0.1-0.3-1.1-0.2c0.2-0.3,0.5-0.5,0.8-0.8c0.1-0.1,0.1-0.3,0-0.4c0,0-0.1-0.1-0.1-0.1c-0.3,0-0.6,0.1-0.9,0.2
	c0.1-0.3,0.4-0.6,0.7-0.8c0.1,0,0.2-0.2,0.2-0.3c0-0.1-0.1-0.1-0.2-0.2c-0.4-0.1-0.7,0-1.1,0.1c0.4-0.5,1.1-0.4,1-0.8
	c-0.1-0.4-0.2-0.8-0.2-1.2c-0.3,0.4-0.4,0.8-0.3,1.3c-0.5,0.2-0.9,0.6-1.1,1.1c0.3-0.1,0.7-0.2,1.1-0.1c-0.4,0.4-0.7,0.8-0.8,1.4
	c0.3-0.2,0.7-0.3,1.1-0.3c-0.5,0.3-0.8,0.7-1.1,1.2c0.4-0.1,0.9-0.1,1.3,0c0,0.3,0.1,0.7,0.1,1c0,0.3,1,0.7,2,0.9
	c0.6,0.1,1,0.5,1.7,0.5c0.1,0.2,0.1,0.4,0,0.6c0.2-0.2,0.4-0.5,0.5-0.8c0.1,0,0.2-0.2,0.2-0.3c0.2,0,0.3,0,0.5,0
	c0.1,0.2,0.2,0.5,0.1,0.7c0.3-0.2,0.3-0.6,0.2-0.9c0.2-0.2,0.3-0.5,0.2-0.8c0,0,0.3,0,0.6,0.5c0-0.3-0.1-0.6-0.2-0.8
	C49.6,114.3,49.5,113.9,49.3,113.7z"/>
<path d="M62.6,107.4c0.2-0.2,0.3-0.6,0.2-0.9l0,0c-0.1-0.3-0.3-0.6-0.5-0.7c0-1.3-1.5-1.4-2.1-0.7c-0.6,0.1-1.3,0-1.9-0.3
	c-0.2-0.1-0.3-0.3-0.3-0.5c0-0.9-0.1-3.7-0.8-4.3c0.1,0.2,0.2,0.5,0.2,0.7c0.1,1.3,0.2,2.6,0.1,3.8c0,0.3,0.2,0.6,0.5,0.6
	c0.8,0.3,1.6,0.4,2.4,0.2c0.3-0.2,1-0.9,1.7,0.1c-0.4-0.3-1-0.3-1.5,0c-0.5,0.2-1,0.3-1.6,0.3c0.8,0.2,1.3,0.2,1.7,0
	c0.4-0.5,2.1,0,1.8,1c-0.2-0.3-0.5-0.6-0.9-0.8c-0.3-0.2-0.9-0.2-1.1,0.2c-0.4,0.1-0.9,0.1-1.3,0.1c0.4,0.1,0.8,0.2,1.3,0.2
	c0.4-0.3,0.9-0.3,1.3,0c0.1,0.1,0.7,0.5,0.2,1c-0.2,0.3-0.6,0.4-1.3,0.3c-0.3-0.1-0.7-0.1-1-0.1c-0.1,0.3-0.3,0.6-0.6,0.8
	c0,0-0.4-1.1-0.7-1.1s-0.5,1-1,1.2c0-0.5-0.2-1.1-0.4-1.1s-0.3,0.4-0.9,0.8c0-0.3,0-0.7-0.2-1c-0.1-0.1-0.8-0.2-0.8-0.3
	c-0.3-0.3,0.7-2.3-0.6-3.6c-0.8-0.5-1.7-0.7-2.6-0.5c-0.1-0.3-0.3-0.6-0.5-0.8c1.7,3.7-5.5,7.5-5.6,8.6c0.2-0.2,0.4-0.3,0.6-0.4
	c0,1,0.1,2,0.3,2.9c-0.3-0.5-0.5-1-0.6-1.5c-0.1,0.6-0.1,1.2,0,1.8c-0.3-0.5-0.5-1-0.5-1.5c-0.1,0.7-0.1,1.4,0.1,2.1
	c0.2,0.5,1.2,0.6,1.2,0.6s-0.7-0.5-0.5-0.8c0.2,0.2,0.5,0.3,0.8,0.2c-0.2,0-0.4-0.2-0.4-0.4c0.3,0.2,0.7,0.1,1-0.1
	c0,0-0.7,0-0.7-0.3c0.3,0.3,1.2-0.1,1.2-0.1s-1.1,0.1-1.3-0.5c-0.2-0.9-0.2-1.8-0.1-2.7c0.1-0.4,3.6-2.4,4.8-4.7
	c0.3-0.6,0.5-1.2,0.3-1.9c0.8-0.2,1.6,0,2.1,0.5c0.8,0.8,0,3.3,0.4,3.5c0.3,0.1,0.6,0.2,0.9,0.4c0.2,0.4,0.3,0.9,0.1,1.3
	c0.5-0.3,0.9-0.6,1.3-0.9c0.1,0.4,0.2,0.9,0.1,1.3c0.6-0.3,1.1-0.8,1.5-1.3c0.2,0.3,0.4,0.7,0.4,1.1c0.5-0.2,0.9-0.5,1.1-1
	c0.8-0.1,1.5,0.4,2.1,0c0.1-0.1,0.5,0.3,0.7,0.7c0.1-0.4,0-0.9-0.2-1.2C62.6,107.7,62.5,107.6,62.6,107.4z"/>
<path d="M44.1,103.6c1.4,1.5,1.3,3.9-0.2,5.2c0.6-0.3,1.1-0.8,1.5-1.3c1.5,0,2.8-0.8,3.6-2c-0.9,0.8-2.1,1.2-3.2,1
	c0-0.2,0-0.5,0-0.7c0.9-0.9,4.2-1.5,4.1-3.2c-0.4,1.3-3.6,1.3-4.3,2.3c-0.1-0.3-0.2-0.5-0.3-0.7c0.8-1.2,3.9-1.1,4.9-2.8
	c-1.2,0.8-3.8,0.2-5.6,1.8c-0.2-0.2-0.4-0.5-0.6-0.7c0,0.3,0,0.5,0,0.8c-0.4,0.1-0.7,0.1-1.1,0.1c-0.2-0.6-0.4-1.1-0.4-1.8
	c-0.4,0.4-0.6,0.9-0.7,1.4c-0.6-0.5-1-1.2-1.1-1.9c0-0.1,0-0.3-0.1-0.4c0.4-0.4,0.9-0.5,1.4-0.4c0.3,0.9,1,1.9,2,1
	c1.8,0.2,3.3-1.1,5.7-1.1c-1.6-0.8-4.1,0.2-5.3,0l-0.1,0.1c0.1-0.4,0.3-0.9,0.5-1.6h0.1c0.9,0.1,2.6-0.9,4.5,0.2
	c-1.6-1.6-3.1-1.2-4.2-1.2c0.1-0.3,0.3-0.7,0.5-1.1c0.8,0,3.3-0.2,4.5,0.7c-0.9-1.3-3.6-1.5-4.1-1.5c0.2-0.5,0.5-1,0.8-1.5
	c-1.4,1.8-2.5,3.8-3.1,6c-0.2,0.8-0.6,0.9-1,0.5c-0.4-0.4-0.8-3.4,1.8-8.8c-0.8,1.3-1.5,2.8-2,4.2c-0.3-0.2-0.7-0.2-1.1-0.1
	c0.4-1,0.9-2.1,1.3-3.1c0.3-0.3,0.7-0.5,1.2-0.5c-0.2-0.3-0.5-0.5-0.9-0.4c0.3-0.6,0.5-1.2,0.7-1.8l0,0c0.4-0.1,0.8-0.1,1.1,0.1l0,0
	c-0.1,0.4-0.2,0.8-0.3,1.2c1-1.4,1.1-3.3,0.4-4.9c-1.7-3.1-4.6-1.5-4.3-0.9c0.4,0.8,1.9,0,2.6,1.2c1.1,2-0.8,5.4-2.1,8.3
	C39.6,98.3,38.8,104.7,44.1,103.6z M41.2,85.1c0.3-0.2,0.6-0.3,0.9-0.3c-0.2,0.2-0.2,0.5-0.2,0.7c-0.2,0-0.3,0-0.5,0
	C41,85.5,41,85.3,41.2,85.1z M42.8,85.8l-0.1-0.1c-0.1-0.3,0-0.6,0.2-0.8c0.5,0.2,1,0.5,1.4,0.9c-0.6,0.2-0.4,0.6-0.4,0.8
	c0.3-0.1,0.6-0.1,0.9,0l0,0c0.3,0.7,0.4,1.5,0.3,2.3c-0.3-0.2-0.7-0.2-1,0c0.1-0.5,0.1-1.1-0.1-1.6C43.7,86.7,43.3,86.2,42.8,85.8
	L42.8,85.8z M42.1,97L42.1,97c-0.2,0.7-0.3,1.3-0.3,2c-0.5-0.1-0.9,0-1.3,0.2c0.1-0.7,0.2-1.4,0.5-2.1C41.3,97,41.7,96.9,42.1,97
	L42.1,97z"/>
<path d="M50.2,75.4c-1.7-0.7-2.2,0.2-1.9,0.8c-0.6,0.3-1.3,1.8,1.5,1.7c-1.4-0.3-1.7-1-1.1-1.3l0,0c0.5,0.6,1.4,0.7,2,0.2
	c0.1-0.1,0.3-0.3,0.4-0.4c0.3,0,0.5-0.2,0.7-0.5c0.5,0.1,1,0.1,1.5,0.2c-0.4-0.3-0.9-0.5-1.5-0.6c-0.1-0.2-0.5-0.4-1.1-0.6
	c1.4,0.5,0.6,1.5,0.2,1.1c-0.6-0.6-1.2-0.3-1.8,0C48.9,75.9,49,75.3,50.2,75.4z M50,76.1c-0.1,0.1-0.2,0.2-0.2,0.3
	c0,0.2,0.1,0.3,0.2,0.3c0.1,0,0.2-0.1,0.2-0.3c0,0,0-0.1,0-0.2c0.1,0.1,0.3,0.1,0.4,0.1c-0.1,0.5-0.6,0.6-1.6,0.1
	C49.5,76.1,49.8,76.1,50,76.1L50,76.1z"/>
<path d="M53.6,77c-0.3,0-0.6-0.1-0.9-0.2c0,0.3,0.4,0.6,0.7,0.6c-0.1,1.8-1.4,1.3-2.5,1.1c-0.5,0.1-1.5,0.6-1.2,1.7
	c-0.4-0.6-0.2-1.3,0.3-1.8c-1.2,0.1-1.1,1.7-0.2,2.4c0.3,0.2,1,0,1.4,0c0.6-0.1,1,0.2,1.3,0.1c0.3-0.1,0.6-0.4,0.6-0.8
	c0.1,0.2,0.2,0.5,0.1,0.7c0.3,0.3,0,0.9,0,1c-0.6-0.6-1.9-0.4-2.9,0.2c-0.4,0-0.7-0.3-1-0.6c0,0.3-0.1,0.6-0.3,0.8
	c-0.2-0.4-0.5-0.7-0.9-0.9c0,0.2-0.1,0.5-0.3,0.7c-0.2-0.7-1.7-0.9-2-3.3c-0.3,2.8,1.9,2.7,1.9,4c0.3-0.1,0.5-0.3,0.6-0.6
	c0.3,0.2,0.5,0.5,0.6,0.8c0.3-0.2,0.4-0.4,0.5-0.7c0.3,0.2,0.6,0.3,0.9,0.3c0.2-0.3,0.6-0.5,1-0.5c-0.1,0.2,0,0.3,0.1,0.5
	c0.7,0.7,1.8,0.4,2.6,0.5c-0.1,0.1-0.1,0.2-0.1,0.3c0.7,0.2,1.4,0.5,2.1,1c-0.3-0.6-0.9-1-1.6-1.2c0-0.1,0.1-0.2,0.2-0.3
	c-0.7-0.2-2.2-0.1-2.5-0.4c-0.2-0.2-0.2-0.4,0-0.6c0,0,0.1,0,0.1-0.1c0.2-0.2,0.8,0.1,0.8,0.7c0.2,0,1-1.3,0.4-1.7
	c0-0.2-0.1-0.3-0.2-0.5c0.7,0,1.7-0.5,1.2-1.7c0,0-0.1,0-0.1,0c-0.1,0.5-0.5,0.9-1,1c0.6,0,0.7-0.2,1-0.4c-0.2,1-2.2,0.5-2.8,0.8
	c0.2-0.3,0.6-0.4,1.6-0.4c-1-0.3-2.2,0-2.8,0.9l0,0c-0.2-0.5-0.1-1,0.3-1.4c0.6-0.3,1.2,0.1,1.9,0.1c0.9,0,1.3-0.3,1.5-1.9
	c0.5-0.5,0.6-0.8-0.4-1C53.8,76.6,54,76.7,53.6,77z M52,80.6c-0.1-0.1-0.3-0.2-0.4-0.2c0.4-0.1,0.7-0.1,1.1-0.1
	C52.6,80.5,52.3,80.7,52,80.6C52,80.6,52,80.6,52,80.6z"/>
<path d="M70.8,74.9c-0.2,1.8-1.2,2.3-1.7,3.6s-0.3,2.5-1.7,3.9c-0.9,0.9-0.7,2.5-1.2,4.1c-0.5,1.3-2.7,4.2-4.6,2.8
	c-0.2,0.4,0.1,0.9,0.9,1c0.8,0.1,1.6,0.2,2.4,0.4c0,0.1,0,0.3,0,0.4c-0.1,0.1-0.2,0.2-0.2,0.3c-0.1,0.2,0,0.5,0.1,0.7l-0.2,0.3
	c-0.4,0.1-0.6,0.6-1,0.7c-0.5,0-1,0-1.5-0.2c-0.8-0.2-0.3,0.8,0.1,1c-0.1,0-0.2,0.1,0,0.3c1.6,1.3,3.9-0.2,3.3-1.4
	c0-0.1,0.1-0.2,0.1-0.3c0.2,0,0.4-0.2,0.5-0.4c0.1-0.2,0.1-0.3,0-0.5l0,0c0.1,0,0.2-0.1,0.2-0.2c0.6,0.3,0.8,0.5,1.2,0.5
	c-0.8-1.2,0.3-2.5,0.8-4.5s0.4-3,0.8-3.7c0.9-1.1,1.3-2.6,1.1-4C70.2,77.7,71.6,77.2,70.8,74.9z"/>
<path class="st5" d="M65.2,88.3c0.2-0.4,1.1-2.3,2.1-4.4c0.8-1.7,1.3-1.5,1.7-3.8s1.3-2.8,1.7-3.7c0,0.8-0.8,1.8-0.8,3.3
	c0,0.5-0.1,0.9-0.4,1.4c-0.4,1.3-1,1.5-1.5,4c-0.4,1.2-0.7,2.5-0.8,3.8c-0.2,0.5-0.3,1-0.4,1.6c-0.7-0.8-2.5-0.8-3.1-0.8
	C64.3,89.4,64.9,88.9,65.2,88.3z"/>
<path class="st2" d="M65.5,91.2c-0.1,0.3-0.1,0.6,0.1,0.9c-0.2,0-0.4-0.4-0.4-0.6c-0.2,0-0.2,0.3-0.2,0.4c-0.2-0.2-0.2-0.5,0-0.7
	c0,0,0.1-0.1,0.1-0.1C65.2,91.2,65.4,91.2,65.5,91.2z"/>
<path class="st2" d="M67.2,91.4c-1.1-2.1-4.8-1.4-5.4-1.8C62.2,90.4,65.4,89.8,67.2,91.4z"/>
<path class="st2" d="M64.9,92.9c0.2-0.4-0.2-0.6-0.6-0.1c-0.8,0.8-1.7,0.2-2.2,0.1c-0.2-0.1-0.3,0.3,0.5,0.8c-0.3,0-0.1,0.1,0.1,0.3
	c0.7,0.4,1.6,0.3,2.2-0.3c-0.6,0.3-1.3,0.4-1.9,0.1C64.2,93.8,64.7,93.5,64.9,92.9z"/>
<path d="M65.9,88.5c-0.3,0.4-0.7,0.8-1.1,1c0.3-0.3,0.5-0.6,0.7-0.9L65.9,88.5z"/>
<path d="M75.2,89.2c-1.8,1.5-4.1-1.4-4.6-2.8c-0.5-1.5-0.3-3.1-1.2-4.1c-1.4-1.4-1.2-2.7-1.7-3.9S66.2,76.8,66,75
	c-0.8,2.3,0.5,2.7,0.5,4.6c-0.2,1.4,0.2,2.9,1.1,4c0.4,0.7,0.3,1.6,0.8,3.7s1.6,3.2,0.7,4.5c0.4,0,0.7-0.2,1.2-0.5
	c0.1,0.1,0.1,0.2,0.2,0.2l0,0c-0.1,0.2-0.1,0.3,0,0.5c0.1,0.2,0.3,0.4,0.5,0.4c0,0.1,0,0.2,0.1,0.3c-0.5,1.2,1.7,2.7,3.3,1.4
	c0.2-0.1,0.1-0.3,0-0.3c0.4-0.2,1-1.2,0.1-1c-0.5,0.2-1,0.3-1.5,0.2c-0.4-0.1-0.6-0.6-1-0.7c0-0.1-0.1-0.2-0.2-0.3
	c0.2-0.2,0.2-0.4,0.1-0.7c-0.1-0.1-0.1-0.2-0.2-0.3c0-0.1,0-0.3,0-0.4c0.8-0.2,1.6-0.4,2.4-0.4C75.1,90.1,75.4,89.6,75.2,89.2z"/>
<path class="st5" d="M71.5,88.3c-0.2-0.4-1.1-2.3-2.1-4.4c-0.8-1.7-1.3-1.5-1.7-3.8s-1.3-2.8-1.7-3.7c0,0.8,0.8,1.8,0.8,3.3
	c0,0.5,0.2,1,0.4,1.4c0.4,1.3,1.1,1.5,1.5,4c0.4,1.2,0.7,2.5,0.8,3.8c0.2,0.5,0.3,1,0.4,1.6c0.7-0.8,2.5-0.8,3.1-0.8
	C72.5,89.4,71.9,88.9,71.5,88.3z"/>
<path class="st2" d="M71.2,91.2c0.1,0.3,0.1,0.6-0.1,0.9c0.2,0,0.4-0.4,0.4-0.6c0.2,0,0.2,0.3,0.2,0.4c0.2-0.2,0.2-0.5,0-0.7
	c0,0-0.1-0.1-0.1-0.1C71.5,91.2,71.4,91.2,71.2,91.2z"/>
<path class="st2" d="M69.5,91.4c1.1-2.1,4.8-1.4,5.4-1.8C74.6,90.4,71.4,89.8,69.5,91.4z"/>
<path class="st2" d="M71.8,92.9c-0.2-0.4,0.2-0.6,0.6-0.1c0.8,0.8,1.7,0.2,2.2,0.1c0.2-0.1,0.3,0.3-0.4,0.8c0.3,0,0.1,0.1-0.1,0.3
	c-0.7,0.4-1.6,0.3-2.2-0.3c0.6,0.3,1.3,0.4,1.9,0.1C72.6,93.8,72.1,93.5,71.8,92.9z"/>
<path d="M70.9,88.5c0.3,0.4,0.7,0.8,1.1,1c-0.3-0.3-0.5-0.6-0.7-0.9L70.9,88.5z"/>
<path class="st1" d="M74.8,88.5V81v-0.5c0,0-0.2,0-0.9-0.1c-0.1,0-0.2,0-0.3-0.1c-0.1,0-0.2-0.2-0.2-0.3c-0.8,0.2-1.6,0.1-2.3-0.4
	c-1-0.4-2.7,0.9-2.7,0.9l0,0c0,0-1.4-1.2-2.4-0.9s-2,0.7-2.6,0.4c-0.3,0.5-0.8,0.9-1.3,1.1l0,7.4l4.9,0.1l1.5,0.7l0,0l1.5-0.7
	L74.8,88.5z"/>
<path class="st2" d="M69.9,88.6c-0.4,0.5-0.9,0.7-1.5,0.7c-0.4-0.5-0.4-1.2,0.1-1.6c0,0,0,0,0,0c0.7,0,0.5,0.2,1.1,0.2
	c2.1,0,4.7,0,4.7-0.1c0-1.2,0-5.7,0-6.9c0-0.2-0.3-0.4-0.3-0.4h0.8v7.9C73.2,88.4,71.5,88.4,69.9,88.6z"/>
<path class="st5" d="M68.4,80.5v7.3c-1.5,0.1-3.1,0.1-4.6,0c1.4-0.3,2.1-0.9,2.9-0.8c-0.5-3.1,1.1-4.8,0.4-7.2
	C67.6,79.9,68,80.1,68.4,80.5z"/>
<path class="st5" d="M71.2,79.7c1,1.8-0.8,4.6,0,7.5c0.1,0.1,1.4,0.2,1.5-0.5c-0.8-2,0.7-4.5,0.1-6.6C72.3,79.9,71.8,79.7,71.2,79.7
	z"/>
<path class="st5" d="M64.6,80c0.3,2.9-1.2,5.6-0.3,7.7c-0.4,0.1-0.8,0.1-1.2,0l0.3-7.7C63.7,80.2,64.2,80.2,64.6,80z"/>
<path class="st6" d="M66.5,86.8"/>
<path class="st5" d="M69.5,87.9c-0.4,0-0.7-0.1-1.1-0.2c0,0,0.8-0.8,1.5-0.8c1.3,0.1,1.8,0.7,2.9,0.8c-0.6,0.1-1.2,0.1-1.9,0.1
	C70.6,87.8,70.1,87.9,69.5,87.9z"/>
<path class="st2" d="M71.2,87.2c0.4,0,0.8-0.1,1.2-0.2c0.6-0.3,1.1-0.8,1.3-1.5c-0.1,0.6-0.2,1.2-0.1,1.8c-0.3,0.3-0.9,0.3-1.1,0.3
	C72.1,87.6,71.6,87.5,71.2,87.2z"/>
<polygon class="st5" points="73.7,84.8 73.7,80.3 74.2,80.9 74.3,87.8 73.7,87.6 "/>
<path class="st2" d="M66.8,88.6c0.4,0.5,0.9,0.7,1.5,0.7c-0.2-0.2-0.2-0.6-0.2-0.9s0.2-0.4,0.1-0.6c-0.7,0-0.5,0.2-1.1,0.2
	c-2.1,0-4.7,0-4.7-0.1c0-1.2,0-5.7,0-6.9c0-0.2,0.3-0.4,0.3-0.4H62v7.9C63.6,88.4,65.2,88.4,66.8,88.6z"/>
<path class="st2" d="M65.6,87.2c-0.4,0-0.8-0.1-1.2-0.2c-0.5-0.2-1-0.7-1.2-1.2c-0.1,0.5-0.1,1.1,0.1,1.6c0.2,0.4,0.8,0.2,1,0.1
	C64.7,87.6,65.2,87.5,65.6,87.2z"/>
<path d="M75,80.3h-1.1c-0.1-0.1-0.1-0.2-0.2-0.3h-0.2c0-0.1,0-0.2,0-0.2c-1.7,0.8-2.5-1.6-4.8,0.4c2.3-1.4,3.4,0.4,4.6-0.1
	c-0.1,0.8,0.1,3.2,0.2,4.5c0,1.5-0.3,1.6-0.9,1.6c0,0.8-0.4,0.9-0.9,0.9s-1-0.5-2-0.3l0,0c-0.5,0.1-1,0.3-1.3,0.7l0,0
	c-0.3-0.4-0.8-0.7-1.3-0.7l0,0c-1.1-0.2-1.5,0.3-2.1,0.3c-0.5,0-0.9-0.1-0.9-0.9c-0.6,0-0.9-0.1-0.9-1.6c0-1.3,0.3-3.7,0.2-4.5
	c1.2,0.5,2.4-1.3,4.6,0c-2.5-1.9-3.1,0.5-4.8-0.3c0,0,0,0.1,0,0.2h-0.2c0,0.1-0.1,0.2-0.2,0.3h-1.3v8.4h5.2c0.4,0.5,0.9,0.7,1.5,0.8
	l0,0c0.6-0.1,1.2-0.3,1.5-0.8h5.2L75,80.3L75,80.3z M73.8,80.5c0.1,0.2,0.2,0.3,0.3,0.4v6.8c0,0-0.2,0-0.3-0.4
	C73.7,87,73.8,80.7,73.8,80.5z M73.6,86v1.3c-0.6,0.2-1.2,0.2-1.7,0C72.4,87.3,73.1,87.2,73.6,86z M72.2,87.7c-1.1,0-2.1,0-2.8,0
	c-0.1,0,0.2-0.4,0.7-0.4c-0.5-0.1-1,0-1.5,0.2C70.2,86.3,70.9,87.6,72.2,87.7z M68.1,87.6c-0.2,0-0.8-0.4-1.5-0.2
	c0.5,0,0.8,0.3,0.7,0.4c-0.7,0-1.7,0-2.8,0C65.8,87.6,66.5,86.3,68.1,87.6L68.1,87.6z M64.9,87.3c-0.6,0.2-1.2,0.2-1.7,0V86
	C63.7,87.2,64.4,87.3,64.9,87.3L64.9,87.3z M63,87.3c-0.1,0.4-0.3,0.4-0.3,0.4v-6.9c0.1-0.1,0.2-0.2,0.3-0.4
	C63,80.7,63.1,87,63,87.3L63,87.3z M74.7,88.4h-5c-0.3,0.4-0.8,0.7-1.3,0.7c-0.5,0-1-0.3-1.3-0.7h-5v-7.8h0.6
	c-0.1,0.1-0.1,0.1-0.2,0.2c0,2.2,0,7.2,0,7.2h5.1c0.3-0.1,0.5-0.1,0.8-0.2l0,0c0.3,0,0.6,0.1,0.8,0.2h5.1c0,0,0-5,0-7.2
	c-0.1-0.1-0.1-0.1-0.2-0.2h0.6L74.7,88.4z"/>
<path class="st4" d="M68.4,88.1c-0.2,0-0.5,0-0.7,0.2c0.1,0.3,0.4,0.5,0.7,0.4l0,0c0.3,0,0.6-0.1,0.7-0.4
	C68.9,88.2,68.6,88.1,68.4,88.1z"/>
<path d="M73.6,100.5c0.2-0.8-0.3-1.6-1-1.8c-0.3-0.1-0.5-0.1-0.8,0c0.3-0.7,0-1.4-0.7-1.7c-0.3-0.1-0.7-0.1-1.1,0
	c-0.4-0.6-1-0.9-1.6-0.8c-0.7,0-1.3,0.3-1.7,0.8c-0.6-0.3-1.4,0-1.7,0.6c-0.2,0.3-0.2,0.7,0,1.1c-0.8-0.2-1.6,0.2-1.8,1
	c-0.1,0.3-0.1,0.5,0,0.8c-0.6,0.4-0.7,1.1-0.4,1.7c0.1,0.1,0.1,0.2,0.2,0.2c-0.3,0.7-0.1,1.5,0.6,1.9c0.1,0.1,0.2,0.1,0.4,0.1
	c-0.3,0.5-0.6,1.5,0.7,1.9c-0.1,0.7,0.5,1.4,1.2,1.4c0.2,0,0.4,0,0.6-0.1c0.4,0.5,1.2,0.6,1.8,0.2c0.1-0.1,0.2-0.2,0.2-0.2
	c0.4,0.6,1.2,0.7,1.7,0.3c0.1-0.1,0.2-0.1,0.3-0.2c0.7,0.3,1.5-0.1,1.7-0.8c0.1-0.2,0.1-0.4,0.1-0.6c0.6-0.1,1.1-0.7,1-1.3
	c0-0.2-0.1-0.4-0.3-0.6c0.8-0.1,1.3-0.9,1.1-1.6c0-0.1-0.1-0.3-0.1-0.4c0.4-0.5,0.4-1.3-0.1-1.7C73.8,100.6,73.7,100.6,73.6,100.5z"
	/>
<path d="M77.6,95.4"/>
<path d="M58.7,95"/>
<path class="st4" d="M73,100.4c0.3-1.3-0.9-1.4-1.3-1.2c-1.2,0.7-2.2,1.7-2.9,2.8c0.4-1.3,1.3-2.4,2.5-3.1c0.3-0.5,0-1.2-0.5-1.5
	c-0.3-0.1-0.6-0.1-0.9,0c-0.5-0.8-1.6-1-2.4-0.5c-0.2,0.1-0.4,0.3-0.5,0.5c-0.6-0.2-1.2,0.1-1.4,0.6c-0.1,0.3-0.1,0.6,0,0.9
	c1.2,0.7,2,1.8,2.5,3.1c-0.7-1.2-1.7-2.2-2.9-2.9c-0.5-0.2-1.6-0.2-1.3,1.2c-0.6,0.2-0.8,0.9-0.6,1.5c0.1,0.2,0.2,0.3,0.3,0.4
	c-0.4,0.5-0.2,1.2,0.3,1.6c0.1,0.1,0.2,0.1,0.3,0.1c1-1,2.4-1.5,3.8-1.3c-1.3,0.1-2.5,0.6-3.4,1.5c-0.6,0.6-0.6,1.7,0.5,1.8
	c-0.1,1.4,0.8,1.4,1.5,1.1c0.3,0.5,1,0.7,1.5,0.3c0,0,0,0,0.1,0c0.2-1.2,0.3-2.3,0.4-3.5c0,1.2,0.2,2.3,0.3,3.5
	c0.5,0.4,1.2,0.3,1.5-0.2c0,0,0,0,0-0.1c0.6,0.2,1.6,0.3,1.5-1.1c1.1-0.1,1.1-1.2,0.5-1.8c-0.9-0.9-2.1-1.4-3.4-1.5
	c1.4-0.2,2.8,0.3,3.8,1.3c0.6-0.2,0.9-0.8,0.8-1.4c0-0.1-0.1-0.2-0.1-0.3c0.5-0.4,0.5-1.1,0.1-1.6C73.3,100.6,73.1,100.5,73,100.4z"
	/>
<path class="st2" d="M72.9,101.2c-0.1-0.4-0.4-0.8-0.8-1c0-0.5-0.4-0.6-0.6-0.5c-0.5,0.2-0.9,0.6-1.2,1c0.5-0.2,1-0.3,1.5-0.2
	c-0.4,0.2-0.8,0.4-1.1,0.7c0.5-0.1,1.1-0.1,1.6,0.1c-0.5,0.1-1,0.3-1.5,0.5c0.5,0,1,0.1,1.5,0.4c-0.5,0-1,0-1.5,0.2
	c0.7,0.1,1.4,0.5,1.9,1c0.2-0.3,0.2-0.7,0.1-1C72.9,102.1,73,101.6,72.9,101.2z"/>
<path class="st2" d="M72,104.6c-0.3-0.4-0.7-0.7-1.1-0.8c0.2,0.4,0.4,0.8,0.4,1.3c-0.3-0.3-0.6-0.6-1-0.8c0.2,0.4,0.4,0.8,0.4,1.3
	c-0.3-0.3-0.6-0.7-0.9-0.9c0.2,0.4,0.3,0.8,0.2,1.2c-0.2-0.4-0.5-0.7-0.8-1c0.2,0.4,0.2,0.8,0.1,1.2c-0.1-0.4-0.4-0.7-0.7-1
	c0.1,0.6,0.2,1.1,0.3,1.7c0,0.2,0.9,0.2,1.2-0.3c1.1,0.3,1.3-0.4,1.4-1C72.2,105.4,72.2,104.8,72,104.6z"/>
<path class="st2" d="M69.5,97.9c-0.3-0.3-0.7-0.5-1.1-0.5l0,0c-0.4,0-0.8,0.2-1.1,0.5c-1.1-0.2-1.2,0.6-1.2,0.8
	c0.6,0.3,1,0.8,1.4,1.4c-0.1-0.4-0.2-0.8-0.4-1.3C67.6,99,68,100,68,100s-0.1-0.9-0.1-1.4c0.2,0.4,0.4,0.9,0.5,1.4
	c0.1-0.5,0.3-1,0.5-1.4c0,0.5-0.1,1.4-0.1,1.4s0.3-1,0.8-1.1c-0.2,0.4-0.3,0.8-0.4,1.3c0.4-0.6,0.8-1,1.4-1.4
	C70.7,98.5,70.6,97.8,69.5,97.9z"/>
<path class="st2" d="M63.9,101.2c0.1-0.4,0.4-0.8,0.8-1c0-0.5,0.4-0.6,0.6-0.5c0.5,0.2,0.9,0.6,1.2,1c-0.5-0.2-1-0.3-1.5-0.2
	c0.4,0.2,0.8,0.4,1.1,0.7c-0.5-0.1-1.1-0.1-1.6,0.1c0.5,0.1,1,0.3,1.5,0.5c-0.5,0-1,0.1-1.5,0.4c0.5,0,1,0,1.5,0.2
	c-0.7,0.1-1.4,0.5-1.9,1c-0.2-0.3-0.2-0.7-0.1-1C63.9,102.1,63.8,101.6,63.9,101.2z"/>
<path class="st2" d="M64.8,104.6c0.3-0.4,0.7-0.7,1.1-0.8c-0.2,0.4-0.4,0.8-0.4,1.3c0.3-0.3,0.7-0.6,1-0.8c-0.2,0.4-0.4,0.8-0.4,1.3
	c0.3-0.3,0.6-0.7,0.9-0.9c-0.2,0.4-0.3,0.8-0.2,1.2c0.2-0.4,0.5-0.7,0.8-1c-0.2,0.4-0.2,0.8-0.1,1.2c0.1-0.4,0.4-0.7,0.7-1
	c-0.1,0.6-0.2,1.1-0.3,1.7c0,0.2-0.9,0.2-1.1-0.3c-1.2,0.3-1.3-0.4-1.4-1C64.6,105.4,64.6,104.8,64.8,104.6z"/>
<path d="M68.6,102.2c-1-0.9-2.3-1.5-3.7-1.8c0.1-0.1,0.1-0.2,0.1-0.3c0-0.3-0.2-0.5-0.5-0.5c0,0,0,0,0,0c-0.2,0-0.3,0.1-0.4,0.2
	c-0.1-0.2-0.3-0.2-0.5-0.2c-0.2,0-0.4,0.1-0.5,0.3c-0.2-0.2-0.5-0.3-0.7-0.1c-0.1,0.1-0.2,0.2-0.2,0.3c-0.1-0.3-0.4-0.4-0.7-0.3
	c-0.2,0.1-0.3,0.3-0.3,0.5c0,0.2,0.1,0.3,0.3,0.4l-0.1,0.1l0,0c-0.1,0.1-0.1,0.2-0.1,0.3c0,0.3,0.2,0.5,0.5,0.5
	c0.2,0,0.3-0.1,0.4-0.2c0.1,0.1,0.2,0.1,0.4,0.1c0.2,0,0.3-0.1,0.4-0.2c0.2,0.2,0.5,0.3,0.7,0.2c0,0,0.1-0.1,0.1-0.1
	c0.1,0.2,0.3,0.3,0.5,0.3c0.3,0,0.5-0.2,0.5-0.4c1.2,0.4,2.2,1.1,3,2c0.2,0.1,0.5,0.1,0.7,0C68.9,102.9,69,102.7,68.6,102.2z
	 M62.2,100.4c0,0,0-0.1,0.1-0.1l0.1,0.1L62.2,100.4z"/>
<path class="st5" d="M68.4,102.3c-1.7-1.6-4.2-2.3-6.5-1.7c2.3-0.2,4.6,0.6,6.3,2.3C68.7,103.2,68.7,102.6,68.4,102.3z"/>
<path class="st5" d="M62.1,100.2c0,0.1-0.1,0.2-0.3,0.2c0,0,0,0,0,0c-0.1,0-0.2-0.1-0.2-0.3c0-0.1,0.1-0.2,0.3-0.2
	C62,100,62.1,100.1,62.1,100.2z"/>
<path class="st5" d="M63.1,100.1c0,0.1-0.1,0.2-0.3,0.2c0,0,0,0,0,0c-0.1,0-0.2-0.1-0.2-0.3c0-0.1,0.1-0.2,0.3-0.2
	C63,99.8,63.1,99.9,63.1,100.1z"/>
<path class="st5" d="M63,100.9c0,0.1-0.1,0.3-0.3,0.2c-0.1,0-0.3-0.1-0.3-0.2c0,0,0,0,0,0c0-0.1,0.2-0.2,0.3-0.2
	C62.9,100.7,63,100.8,63,100.9z"/>
<path class="st5" d="M62.2,101c0,0.1-0.1,0.3-0.3,0.3c0,0,0,0,0,0c-0.1,0-0.2-0.1-0.2-0.3c0-0.1,0.1-0.2,0.3-0.2
	C62.1,100.7,62.2,100.8,62.2,101z"/>
<path class="st5" d="M64,100c0,0.1-0.2,0.2-0.3,0.2c-0.1,0-0.2-0.1-0.2-0.2c0-0.1,0.1-0.3,0.3-0.3c0,0,0,0,0,0
	C63.9,99.8,64,99.9,64,100z"/>
<path class="st5" d="M63.9,100.9c0,0.1-0.1,0.3-0.3,0.3c0,0,0,0,0,0c-0.1,0-0.3-0.1-0.3-0.2c0-0.1,0.2-0.2,0.3-0.2
	C63.8,100.7,63.9,100.8,63.9,100.9z"/>
<path class="st5" d="M64.8,100.1c0,0.1-0.1,0.2-0.3,0.2c-0.1,0-0.3-0.1-0.3-0.2c0-0.1,0.1-0.3,0.2-0.3c0,0,0.1,0,0.1,0
	C64.7,99.8,64.8,99.9,64.8,100.1C64.8,100.1,64.8,100.1,64.8,100.1z"/>
<path class="st5" d="M64.7,101.1c0,0.1-0.1,0.3-0.3,0.2c-0.1,0-0.2-0.1-0.2-0.2s0.1-0.2,0.2-0.2C64.6,100.8,64.7,101,64.7,101.1z"/>
<path d="M72.7,72.7c-0.5-0.5-1.2-0.7-1.9-0.5c2.2-1,3.7-3.2,3.7-5.6c0-0.8-0.2-1.5-0.4-2.2c-0.4,3.6-2.8,5.8-5.7,5.8l0,0
	c-2.9,0-5.4-2.2-5.7-5.8c-0.2,0.7-0.4,1.5-0.4,2.2c0,2.4,1.5,4.7,3.7,5.6c-0.7-0.1-1.4,0.1-1.9,0.5c-1.1-0.4-2.1,0.6-1.7,1.5
	c0.3,0.5,1,0.6,1.6,0.3c0.1,0,0.1-0.1,0.2-0.1c0.7,0.3,1.5,0.1,2.2-0.3c0.7,0.2,1.5,0.2,2.2-0.1c0.7,0.3,1.5,0.4,2.2,0.1
	c0.6,0.5,1.4,0.6,2.2,0.3c0.4,0.4,1.1,0.5,1.6,0c0,0,0.1-0.1,0.1-0.1C74.8,73.2,73.8,72.3,72.7,72.7z M63.8,74
	c-0.1,0.1-0.2,0.2-0.4,0.2c-0.1,0-0.2-0.1-0.2-0.3c-0.2,0.2,0,0.4-0.3,0.3c-0.1,0-0.2-0.1-0.2-0.1c-0.2-0.3-0.1-0.7,0.2-1
	c0.3-0.2,0.7-0.3,1-0.1C63.7,73.3,63.7,73.7,63.8,74z M62.7,66.5c0-0.2,0-0.4,0-0.6c0.5,2.7,2.9,4.6,5.7,4.6l0,0
	c2.8,0,5.1-1.9,5.7-4.6c0,0.2,0,0.4,0,0.6c0,2.6-1.8,4.9-4.4,5.5c-0.4-0.1-0.9,0-1.2,0.2h-0.1C67.9,72,67.4,72,67,72.1
	C64.5,71.4,62.7,69.1,62.7,66.5z M65.9,73.7c-0.2,0.1-0.4,0.2-0.7,0.2c-0.2,0-0.3-0.3-0.3-0.4c-0.1,0.1-0.1,0.3-0.1,0.5
	c-0.2,0-0.5,0-0.7-0.1c-0.1-0.3-0.1-0.7,0-0.9c0.1-0.4,1.5-0.6,2.1-0.3C66,72.9,65.9,73.3,65.9,73.7z M68.2,73.5
	c0,0.1-0.3,0.2-0.7,0.3c-0.1,0-0.2-0.2-0.3-0.4C67,73.5,67,73.7,67,73.8c-0.2,0.1-0.4,0-0.6-0.1c-0.3-0.3,0-1,0.3-1.1
	c0.5-0.2,1.1-0.2,1.6-0.1C68.2,72.6,68.2,73.3,68.2,73.5z M70.4,73.7c-0.2,0.1-0.4,0.2-0.6,0.1c0-0.2-0.1-0.3-0.2-0.4
	c0,0.2-0.2,0.4-0.3,0.4c-0.5-0.1-0.7-0.2-0.7-0.3s0-0.9,0-0.9c0.5-0.1,1.1-0.1,1.6,0.1C70.4,72.7,70.7,73.4,70.4,73.7z M72.7,73.9
	c-0.2,0.1-0.5,0.2-0.7,0.1c0.1-0.2,0-0.4-0.1-0.5c0,0.1-0.1,0.4-0.3,0.4c-0.2,0-0.5-0.1-0.7-0.2c0.1-0.4,0-0.8-0.3-1.1
	c0.6-0.3,2,0,2.1,0.3C72.8,73.3,72.8,73.6,72.7,73.9z M74,74.1c-0.1,0.1-0.1,0.1-0.2,0.1c-0.2,0-0.1-0.2-0.3-0.3
	c0,0.2-0.1,0.3-0.2,0.3c-0.2,0-0.3-0.1-0.4-0.2c0.1-0.3,0.1-0.7-0.1-1c0.3-0.1,0.7-0.1,1,0.1C74.1,73.4,74.2,73.8,74,74.1z"/>
<path d="M65.3,64.8L65.3,64.8l-1.6,1l1.9,0.3l-1,1.7l1.9-0.5l-0.1,1.9l1.4-1.3l0.7,1.8l0.7-1.8l1.4,1.3l-0.1-1.9l1.8,0.6l-1-1.7
	l1.9-0.3l-1.6-1l0,0l1.6-1l-1.8-0.4l1-1.7l-1.8,0.6l0.1-1.9l-1.4,1.3L68.5,60l-0.7,1.8l-1.4-1.3l0.1,1.9l-1.8-0.6l1,1.7l-1.9,0.3
	L65.3,64.8z M65.4,62.5l1.4,0.4l-0.1-1.5l1.1,1l0.5-1.4l0.5,1.4l1.1-1l-0.1,1.5l1.4-0.4l-0.8,1.3L72,64l-1.3,0.8l1.3,0.8l-1.4,0.2
	l0.8,1.3l-1.4-0.4l0.1,1.5l-1.1-1l-0.5,1.4l-0.5-1.4l-1.1,1l0.1-1.5l-1.4,0.4l0.8-1.3l-1.4-0.2l1.3-0.8l0,0L64.8,64l1.4-0.2
	L65.4,62.5z"/>
</svg>
